<?xml version="1.0" encoding="UTF-8" standalone="no"?>
<svg
   xmlns:dc="http://purl.org/dc/elements/1.1/"
   xmlns:cc="http://creativecommons.org/ns#"
   xmlns:rdf="http://www.w3.org/1999/02/22-rdf-syntax-ns#"
   xmlns:svg="http://www.w3.org/2000/svg"
   xmlns="http://www.w3.org/2000/svg"
   xmlns:sodipodi="http://sodipodi.sourceforge.net/DTD/sodipodi-0.dtd"
   xmlns:inkscape="http://www.inkscape.org/namespaces/inkscape"
   sodipodi:docname="circle.svg"
   id="svg8"
   version="1.1"
   viewBox="0 0 210 297"
   height="297mm"
   width="210mm"
   inkscape:version="1.0.2 (e86c870879, 2021-01-15, custom)">
  <defs
     id="defs2">
    <marker
       style="overflow:visible;"
       id="marker1681"
       refX="0.0"
       refY="0.0"
       orient="auto"
       inkscape:stockid="Arrow1Mend"
       inkscape:isstock="true">
      <path
         transform="scale(0.4) rotate(180) translate(10,0)"
         style="fill-rule:evenodd;stroke:#060000;stroke-width:1pt;stroke-opacity:1;fill:#060000;fill-opacity:1"
         d="M 0.0,0.0 L 5.0,-5.0 L -12.5,0.0 L 5.0,5.0 L 0.0,0.0 z "
         id="path1679" />
    </marker>
    <marker
       style="overflow:visible;"
       id="marker1671"
       refX="0.0"
       refY="0.0"
       orient="auto"
       inkscape:stockid="Arrow1Mend"
       inkscape:isstock="true">
      <path
         transform="scale(0.4) rotate(180) translate(10,0)"
         style="fill-rule:evenodd;stroke:#060000;stroke-width:1pt;stroke-opacity:1;fill:#060000;fill-opacity:1"
         d="M 0.0,0.0 L 5.0,-5.0 L -12.5,0.0 L 5.0,5.0 L 0.0,0.0 z "
         id="path1669" />
    </marker>
    <marker
       style="overflow:visible;"
       id="marker1335"
       refX="0.0"
       refY="0.0"
       orient="auto"
       inkscape:stockid="Arrow1Mend"
       inkscape:isstock="true">
      <path
         transform="scale(0.4) rotate(180) translate(10,0)"
         style="fill-rule:evenodd;stroke:#060000;stroke-width:1pt;stroke-opacity:1;fill:#060000;fill-opacity:1"
         d="M 0.0,0.0 L 5.0,-5.0 L -12.5,0.0 L 5.0,5.0 L 0.0,0.0 z "
         id="path1333" />
    </marker>
  </defs>
  <sodipodi:namedview
     id="base"
     pagecolor="#ffffff"
     bordercolor="#666666"
     borderopacity="1.0"
     inkscape:pageopacity="0.0"
     inkscape:pageshadow="2"
     inkscape:zoom="1.4142136"
     inkscape:cx="342.99694"
     inkscape:cy="301.34636"
     inkscape:document-units="mm"
     inkscape:current-layer="layer1"
     inkscape:document-rotation="0"
     showgrid="false"
     inkscape:window-width="1920"
     inkscape:window-height="1051"
     inkscape:window-x="-9"
     inkscape:window-y="-9"
     inkscape:window-maximized="1" />
  <metadata
     id="metadata5">
    <rdf:RDF>
      <cc:Work
         rdf:about="">
        <dc:format>image/svg+xml</dc:format>
        <dc:type
           rdf:resource="http://purl.org/dc/dcmitype/StillImage" />
        <dc:title></dc:title>
      </cc:Work>
    </rdf:RDF>
  </metadata>
  <g
     inkscape:label="Layer 1"
     inkscape:groupmode="layer"
     id="layer1">
    <path
       style="fill:none;stroke:#ff6600;stroke-width:0.7;stroke-linecap:round;stroke-linejoin:round;stroke-miterlimit:4;stroke-dasharray:none"
       d="m 50.9619,73.9 c 3e-4,2.5214 0.2745,5.0426 0.8162,7.505 0.5418,2.4625 1.3521,4.8657 2.4105,7.1541 1.0585,2.2884 2.3664,4.4612 3.8921,6.4686 1.5256,2.0074 3.2701,3.8483 5.1916,5.4803 1.9215,1.633 4.0209,3.056 6.2484,4.237 2.2275,1.181 4.5837,2.119 7.0131,2.794 2.4294,0.675 4.9322,1.085 7.4498,1.222 2.5176,0.136 5.05,-10e-4 7.5382,-0.409 2.4882,-0.408 4.9317,-1.087 7.2741,-2.02 2.3421,-0.933 4.5831,-2.121 6.6701,-3.536 2.087,-1.415 4.019,-3.0569 5.753,-4.8872 1.735,-1.8303 3.269,-3.8496 4.569,-6.0099 1.3,-2.1603 2.365,-4.4622 3.17,-6.8515 0.805,-2.3893 1.35,-4.8662 1.623,-7.3727 0.273,-2.5066 0.272,-5.0427 0,-7.5493 -0.273,-2.5066 -0.818,-4.9833 -1.623,-7.3728 -0.805,-2.3894 -1.87,-4.6909 -3.17,-6.8515 -1.3,-2.1605 -2.835,-4.1792 -4.569,-6.0099 -1.733,-1.8307 -3.667,-3.4721 -5.753,-4.8873 -2.087,-1.4151 -4.328,-2.6026 -6.6701,-3.5361 -2.3422,-0.9335 -4.786,-1.6115 -7.2741,-2.0196 -2.4881,-0.4082 -5.0205,-0.545 -7.5382,-0.4087 -2.5177,0.1362 -5.0203,0.547 -7.4498,1.2213 -2.4295,0.6743 -4.7853,1.6135 -7.0131,2.7943 -2.2277,1.1807 -4.3266,2.6044 -6.2484,4.2365 -1.9219,1.6321 -3.6656,3.4737 -5.1916,5.4807 -1.5261,2.0071 -2.8331,4.1805 -3.8921,6.4687 -1.0589,2.2881 -1.8682,4.6917 -2.4105,7.154 -0.5422,2.4624 -0.8159,4.9837 -0.8162,7.505"
       id="path1655" />
    <path
       style="fill:none;stroke:#060000;stroke-width:0.5;stroke-linecap:round;stroke-linejoin:round;stroke-miterlimit:4;stroke-dasharray:none;marker-end:url(#marker1671)"
       d="M 85.8737,123.774 V 24.0261"
       id="path1653" />
    <path
       style="fill:none;stroke:#060000;stroke-width:0.5;stroke-linecap:round;stroke-linejoin:round;stroke-miterlimit:4;stroke-dasharray:none;marker-end:url(#marker1681)"
       d="m 35.9997,73.9 h 99.7479"
       id="path1646" />
  </g>
</svg>
