<?xml version="1.0" encoding="UTF-8" standalone="no"?>
<svg
   xmlns:dc="http://purl.org/dc/elements/1.1/"
   xmlns:cc="http://creativecommons.org/ns#"
   xmlns:rdf="http://www.w3.org/1999/02/22-rdf-syntax-ns#"
   xmlns:svg="http://www.w3.org/2000/svg"
   xmlns="http://www.w3.org/2000/svg"
   xmlns:sodipodi="http://sodipodi.sourceforge.net/DTD/sodipodi-0.dtd"
   xmlns:inkscape="http://www.inkscape.org/namespaces/inkscape"
   sodipodi:docname="cusp.svg"
   id="svg8"
   version="1.1"
   viewBox="0 0 210 297"
   height="297mm"
   width="210mm"
   inkscape:version="1.0.2 (e86c870879, 2021-01-15, custom)">
  <defs
     id="defs2">
    <marker
       style="overflow:visible;"
       id="marker2401"
       refX="0.0"
       refY="0.0"
       orient="auto"
       inkscape:stockid="Arrow1Mend"
       inkscape:isstock="true">
      <path
         transform="scale(0.4) rotate(180) translate(10,0)"
         style="fill-rule:evenodd;stroke:#000000;stroke-width:1pt;stroke-opacity:1;fill:#000000;fill-opacity:1"
         d="M 0.0,0.0 L 5.0,-5.0 L -12.5,0.0 L 5.0,5.0 L 0.0,0.0 z "
         id="path2399" />
    </marker>
    <marker
       style="overflow:visible;"
       id="marker2391"
       refX="0.0"
       refY="0.0"
       orient="auto"
       inkscape:stockid="Arrow1Mend"
       inkscape:isstock="true">
      <path
         transform="scale(0.4) rotate(180) translate(10,0)"
         style="fill-rule:evenodd;stroke:#000000;stroke-width:1pt;stroke-opacity:1;fill:#000000;fill-opacity:1"
         d="M 0.0,0.0 L 5.0,-5.0 L -12.5,0.0 L 5.0,5.0 L 0.0,0.0 z "
         id="path2389" />
    </marker>
    <marker
       style="overflow:visible;"
       id="marker1987"
       refX="0.0"
       refY="0.0"
       orient="auto"
       inkscape:stockid="Arrow1Mend"
       inkscape:isstock="true">
      <path
         transform="scale(0.4) rotate(180) translate(10,0)"
         style="fill-rule:evenodd;stroke:#000000;stroke-width:1pt;stroke-opacity:1;fill:#000000;fill-opacity:1"
         d="M 0.0,0.0 L 5.0,-5.0 L -12.5,0.0 L 5.0,5.0 L 0.0,0.0 z "
         id="path1985" />
    </marker>
    <marker
       style="overflow:visible;"
       id="marker1977"
       refX="0.0"
       refY="0.0"
       orient="auto"
       inkscape:stockid="Arrow1Mend"
       inkscape:isstock="true">
      <path
         transform="scale(0.4) rotate(180) translate(10,0)"
         style="fill-rule:evenodd;stroke:#000000;stroke-width:1pt;stroke-opacity:1;fill:#000000;fill-opacity:1"
         d="M 0.0,0.0 L 5.0,-5.0 L -12.5,0.0 L 5.0,5.0 L 0.0,0.0 z "
         id="path1975" />
    </marker>
    <marker
       style="overflow:visible;"
       id="marker1671"
       refX="0.0"
       refY="0.0"
       orient="auto"
       inkscape:stockid="Arrow1Mend"
       inkscape:isstock="true">
      <path
         transform="scale(0.4) rotate(180) translate(10,0)"
         style="fill-rule:evenodd;stroke:#060000;stroke-width:1pt;stroke-opacity:1;fill:#060000;fill-opacity:1"
         d="M 0.0,0.0 L 5.0,-5.0 L -12.5,0.0 L 5.0,5.0 L 0.0,0.0 z "
         id="path1669" />
    </marker>
  </defs>
  <sodipodi:namedview
     id="base"
     pagecolor="#ffffff"
     bordercolor="#666666"
     borderopacity="1.0"
     inkscape:pageopacity="0.0"
     inkscape:pageshadow="2"
     inkscape:zoom="1"
     inkscape:cx="185.63661"
     inkscape:cy="317.85955"
     inkscape:document-units="mm"
     inkscape:current-layer="layer1"
     inkscape:document-rotation="0"
     showgrid="false"
     inkscape:window-width="1920"
     inkscape:window-height="1051"
     inkscape:window-x="-9"
     inkscape:window-y="-9"
     inkscape:window-maximized="1" />
  <metadata
     id="metadata5">
    <rdf:RDF>
      <cc:Work
         rdf:about="">
        <dc:format>image/svg+xml</dc:format>
        <dc:type
           rdf:resource="http://purl.org/dc/dcmitype/StillImage" />
        <dc:title></dc:title>
      </cc:Work>
    </rdf:RDF>
  </metadata>
  <g
     inkscape:label="Layer 1"
     inkscape:groupmode="layer"
     id="layer1">
    <path
       style="fill:none;stroke:#ff6600;stroke-width:0.7;stroke-linecap:round;stroke-linejoin:round;stroke-miterlimit:4;stroke-dasharray:none"
       d="m 121.985,110.597 c -2.124,-3.002 -4.174,-5.796 -6.151,-8.399 -1.977,-2.6017 -3.88,-5.0106 -5.711,-7.2415 -1.83,-2.231 -3.587,-4.2829 -5.271,-6.1712 -1.684,-1.8883 -3.295,-3.6119 -4.832,-5.1861 -1.5381,-1.5742 -3.0023,-2.998 -4.3935,-4.2867 -1.3911,-1.2886 -2.7089,-2.4412 -3.9537,-3.4728 -1.2447,-1.0316 -2.416,-1.9416 -3.5144,-2.7448 -1.0983,-0.8031 -2.1232,-1.4989 -3.0751,-2.1022 -0.9519,-0.6033 -1.8303,-1.1135 -2.6358,-1.5455 -0.8054,-0.432 -1.5374,-0.7852 -2.1965,-1.0743 -0.659,-0.2892 -1.2446,-0.514 -1.7572,-0.6889 -0.5126,-0.1749 -0.9517,-0.2998 -1.3179,-0.389 -0.3661,-0.0893 -0.6588,-0.1428 -0.8786,-0.1749 -0.2197,-0.0322 -0.366,-0.0429 -0.4393,-0.0464 -0.0733,-0.0036 -0.0731,0 0,-0.0036 0.0732,-0.0036 0.2198,-0.0143 0.4393,-0.0464 0.2196,-0.0321 0.5126,-0.0857 0.8786,-0.1749 0.366,-0.0892 0.8055,-0.2142 1.3179,-0.389 0.5125,-0.1749 1.0984,-0.3999 1.7572,-0.6889 0.6589,-0.2891 1.3912,-0.6425 2.1965,-1.0743 0.8053,-0.4318 1.6841,-0.9424 2.6358,-1.5455 0.9518,-0.6031 1.977,-1.2993 3.0751,-2.1023 1.0982,-0.803 2.2698,-1.7134 3.5144,-2.7447 1.2447,-1.0314 2.5627,-2.1845 3.9537,-3.4729 1.3911,-1.2884 2.8556,-2.7128 4.3935,-4.2866 1.537,-1.5739 3.148,-3.2982 4.832,-5.1861 1.684,-1.888 3.441,-3.9406 5.271,-6.1712 1.831,-2.2306 3.735,-4.6402 5.711,-7.242 1.977,-2.6018 4.027,-5.3969 6.151,-8.3984"
       id="path2375" />
    <path
       style="fill:none;stroke:#000000;stroke-width:0.499999;stroke-linecap:round;stroke-linejoin:round;stroke-miterlimit:4;stroke-dasharray:none;marker-end:url(#marker2391)"
       d="M 75.8031,119.062 V 15.081"
       id="path2373" />
    <path
       style="fill:none;stroke:#000000;stroke-width:0.499999;stroke-linecap:round;stroke-linejoin:round;stroke-miterlimit:4;stroke-dasharray:none;marker-end:url(#marker2401)"
       d="m 23.8125,67.0719 h 103.981"
       id="path2366" />
  </g>
</svg>
