<?xml version="1.0" encoding="UTF-8" standalone="no"?>
<svg
   xmlns:dc="http://purl.org/dc/elements/1.1/"
   xmlns:cc="http://creativecommons.org/ns#"
   xmlns:rdf="http://www.w3.org/1999/02/22-rdf-syntax-ns#"
   xmlns:svg="http://www.w3.org/2000/svg"
   xmlns="http://www.w3.org/2000/svg"
   xmlns:sodipodi="http://sodipodi.sourceforge.net/DTD/sodipodi-0.dtd"
   xmlns:inkscape="http://www.inkscape.org/namespaces/inkscape"
   sodipodi:docname="hyperbola.svg"
   id="svg8"
   version="1.1"
   viewBox="0 0 210 297"
   height="297mm"
   width="210mm"
   inkscape:version="1.0.2 (e86c870879, 2021-01-15, custom)"
   inkscape:export-filename="C:\Hugo\Sites\papermod\content\posts\2021\schemes\images\hyperbola.png"
   inkscape:export-xdpi="250"
   inkscape:export-ydpi="250">
  <defs
     id="defs2">
    <marker
       style="overflow:visible;"
       id="marker3691"
       refX="0.0"
       refY="0.0"
       orient="auto"
       inkscape:stockid="Arrow1Mend"
       inkscape:isstock="true">
      <path
         transform="scale(0.4) rotate(180) translate(10,0)"
         style="fill-rule:evenodd;stroke:#000000;stroke-width:1pt;stroke-opacity:1;fill:#000000;fill-opacity:1"
         d="M 0.0,0.0 L 5.0,-5.0 L -12.5,0.0 L 5.0,5.0 L 0.0,0.0 z "
         id="path3689" />
    </marker>
    <marker
       style="overflow:visible;"
       id="marker3681"
       refX="0.0"
       refY="0.0"
       orient="auto"
       inkscape:stockid="Arrow1Mend"
       inkscape:isstock="true">
      <path
         transform="scale(0.4) rotate(180) translate(10,0)"
         style="fill-rule:evenodd;stroke:#000000;stroke-width:1pt;stroke-opacity:1;fill:#000000;fill-opacity:1"
         d="M 0.0,0.0 L 5.0,-5.0 L -12.5,0.0 L 5.0,5.0 L 0.0,0.0 z "
         id="path3679" />
    </marker>
    <marker
       style="overflow:visible;"
       id="marker2108"
       refX="0.0"
       refY="0.0"
       orient="auto"
       inkscape:stockid="Arrow1Send"
       inkscape:isstock="true">
      <path
         transform="scale(0.2) rotate(180) translate(6,0)"
         style="fill-rule:evenodd;stroke:#000000;stroke-width:1pt;stroke-opacity:1;fill:#000000;fill-opacity:1"
         d="M 0.0,0.0 L 5.0,-5.0 L -12.5,0.0 L 5.0,5.0 L 0.0,0.0 z "
         id="path2106" />
    </marker>
    <marker
       style="overflow:visible;"
       id="marker2098"
       refX="0.0"
       refY="0.0"
       orient="auto"
       inkscape:stockid="Arrow1Send"
       inkscape:isstock="true">
      <path
         transform="scale(0.2) rotate(180) translate(6,0)"
         style="fill-rule:evenodd;stroke:#000000;stroke-width:1pt;stroke-opacity:1;fill:#000000;fill-opacity:1"
         d="M 0.0,0.0 L 5.0,-5.0 L -12.5,0.0 L 5.0,5.0 L 0.0,0.0 z "
         id="path2096" />
    </marker>
    <marker
       style="overflow:visible;"
       id="marker1560"
       refX="0.0"
       refY="0.0"
       orient="auto"
       inkscape:stockid="Arrow1Mend"
       inkscape:isstock="true">
      <path
         transform="scale(0.4) rotate(180) translate(10,0)"
         style="fill-rule:evenodd;stroke:#000000;stroke-width:1pt;stroke-opacity:1;fill:#000000;fill-opacity:1"
         d="M 0.0,0.0 L 5.0,-5.0 L -12.5,0.0 L 5.0,5.0 L 0.0,0.0 z "
         id="path1558" />
    </marker>
    <marker
       style="overflow:visible;"
       id="marker1977"
       refX="0.0"
       refY="0.0"
       orient="auto"
       inkscape:stockid="Arrow1Mend"
       inkscape:isstock="true">
      <path
         transform="scale(0.4) rotate(180) translate(10,0)"
         style="fill-rule:evenodd;stroke:#000000;stroke-width:1pt;stroke-opacity:1;fill:#000000;fill-opacity:1"
         d="M 0.0,0.0 L 5.0,-5.0 L -12.5,0.0 L 5.0,5.0 L 0.0,0.0 z "
         id="path1975" />
    </marker>
    <marker
       style="overflow:visible;"
       id="marker1671"
       refX="0.0"
       refY="0.0"
       orient="auto"
       inkscape:stockid="Arrow1Mend"
       inkscape:isstock="true">
      <path
         transform="scale(0.4) rotate(180) translate(10,0)"
         style="fill-rule:evenodd;stroke:#060000;stroke-width:1pt;stroke-opacity:1;fill:#060000;fill-opacity:1"
         d="M 0.0,0.0 L 5.0,-5.0 L -12.5,0.0 L 5.0,5.0 L 0.0,0.0 z "
         id="path1669" />
    </marker>
    <marker
       style="overflow:visible;"
       id="marker1335"
       refX="0.0"
       refY="0.0"
       orient="auto"
       inkscape:stockid="Arrow1Mend"
       inkscape:isstock="true">
      <path
         transform="scale(0.4) rotate(180) translate(10,0)"
         style="fill-rule:evenodd;stroke:#060000;stroke-width:1pt;stroke-opacity:1;fill:#060000;fill-opacity:1"
         d="M 0.0,0.0 L 5.0,-5.0 L -12.5,0.0 L 5.0,5.0 L 0.0,0.0 z "
         id="path1333" />
    </marker>
  </defs>
  <sodipodi:namedview
     id="base"
     pagecolor="#ffffff"
     bordercolor="#666666"
     borderopacity="1.0"
     inkscape:pageopacity="0.0"
     inkscape:pageshadow="2"
     inkscape:zoom="1"
     inkscape:cx="353.72635"
     inkscape:cy="372.33357"
     inkscape:document-units="mm"
     inkscape:current-layer="layer1"
     inkscape:document-rotation="0"
     showgrid="false"
     inkscape:window-width="1920"
     inkscape:window-height="1051"
     inkscape:window-x="-9"
     inkscape:window-y="-9"
     inkscape:window-maximized="1"
     showguides="true"
     inkscape:guide-bbox="true" />
  <metadata
     id="metadata5">
    <rdf:RDF>
      <cc:Work
         rdf:about="">
        <dc:format>image/svg+xml</dc:format>
        <dc:type
           rdf:resource="http://purl.org/dc/dcmitype/StillImage" />
        <dc:title />
      </cc:Work>
    </rdf:RDF>
  </metadata>
  <g
     inkscape:label="Layer 1"
     inkscape:groupmode="layer"
     id="layer1">
    <path
       style="fill:none;stroke:#ff6600;stroke-width:0.6;stroke-linejoin:round;stroke-miterlimit:4;stroke-dasharray:none"
       d="m 89.838368,27.629909 c 0.707235,6.884427 1.414392,11.234408 2.121627,14.746522 0.707235,3.512114 1.414392,6.068031 2.121627,8.192476 0.707156,2.124524 1.414391,3.791326 2.121626,5.213473 0.706843,1.422071 1.41447,2.591104 2.121313,3.609286 0.707624,1.018182 1.414474,1.882066 2.122099,2.646819 0.70684,0.764675 1.41447,1.428653 2.12131,2.023983 0.70763,0.595409 1.41447,1.12131 2.12131,1.597919 0.70763,0.476687 1.41447,0.903457 2.1221,1.293553 0.70685,0.390174 1.41447,0.74336 2.12132,1.068649 0.70762,0.32521 1.41446,0.622287 2.12209,0.89758 0.70684,0.275292 1.41447,0.528643 2.12131,0.764675 0.70684,0.235953 1.41448,0.45451 2.12132,0.659119 0.70763,0.204608 1.41447,0.395111 2.12209,0.574094 0.70685,0.179061 1.41447,0.346525 2.12131,0.504586 0.70763,0.15798 1.41447,0.306403 2.12211,0.44683 0.70684,0.140428 1.41368,0.272863 2.12131,0.39856 0.70684,0.125695 1.41447,0.244573 2.12131,0.357652 0.70762,0.113157 1.41447,0.220438 2.12209,0.322781 0.70685,0.102343 1.41448,0.199749 2.12132,0.292768 0.70684,0.0931 1.41447,0.181803 2.12131,0.26675 0.70763,0.08494 1.41447,0.166132 2.1221,0.244026 0.70684,0.07789 1.41447,0.152417 2.12132,0.22412"
       id="path1532" />
    <path
       style="fill:none;stroke:#ff6600;stroke-width:0.6;stroke-linejoin:round;stroke-miterlimit:4;stroke-dasharray:none"
       d="m 32.554923,84.509337 c 0.707157,0.0717 1.414391,0.146228 2.121626,0.224121 0.707157,0.07789 1.414392,0.159079 2.121548,0.244025 0.707235,0.08495 1.41447,0.173733 2.121627,0.266751 0.707235,0.09302 1.414391,0.190425 2.121626,0.292768 0.707235,0.102343 1.414392,0.209623 2.121627,0.32278 0.707157,0.11308 1.414392,0.232036 2.121627,0.357654 0.707156,0.125696 1.414391,0.25813 2.121548,0.398558 0.707235,0.140429 1.41447,0.288928 2.121626,0.44691 0.707235,0.157903 1.414392,0.325445 2.121627,0.504506 0.707235,0.178984 1.414392,0.369565 2.121627,0.574095 0.707156,0.204529 1.414391,0.423165 2.121547,0.659197 0.707235,0.235953 1.41447,0.489382 2.121627,0.764596 0.707234,0.275293 1.414391,0.572449 2.121626,0.897659 0.707235,0.325132 1.414392,0.678475 2.121627,1.06857 0.707156,0.390096 1.414391,0.817022 2.121626,1.293554 0.707157,0.476531 1.414392,1.002666 2.121549,1.597918 0.707235,0.595252 1.414469,1.259151 2.121626,2.023984 0.707235,0.764831 1.414392,1.629185 2.121627,2.64713 0.707235,1.017947 1.414391,2.187137 2.121626,3.608667 0.707157,1.4223 1.414392,3.08988 2.121627,5.21355 0.707157,2.12366 1.414392,4.68303 2.121548,8.19294 0.707235,3.50992 1.41447,7.86696 2.121626,14.74652"
       id="path1530" />
    <path
       style="fill:none;stroke:#000000;stroke-width:0.5;stroke-linejoin:round;stroke-miterlimit:4;stroke-dasharray:none;marker-end:url(#marker3681)"
       d="M 84.636418,130.66478 V 27.629902"
       id="path1528" />
    <path
       style="fill:none;stroke:#000000;stroke-width:0.5;stroke-linejoin:round;stroke-miterlimit:4;stroke-dasharray:none;marker-end:url(#marker3691)"
       d="M 32.554921,79.14066 H 136.70075"
       id="path1521" />
  </g>
</svg>
