<?xml version="1.0" encoding="UTF-8" standalone="no"?>
<svg
   xmlns:dc="http://purl.org/dc/elements/1.1/"
   xmlns:cc="http://creativecommons.org/ns#"
   xmlns:rdf="http://www.w3.org/1999/02/22-rdf-syntax-ns#"
   xmlns:svg="http://www.w3.org/2000/svg"
   xmlns="http://www.w3.org/2000/svg"
   xmlns:sodipodi="http://sodipodi.sourceforge.net/DTD/sodipodi-0.dtd"
   xmlns:inkscape="http://www.inkscape.org/namespaces/inkscape"
   sodipodi:docname="hyperboloid.svg"
   id="svg8"
   version="1.1"
   viewBox="0 0 210 297"
   height="297mm"
   width="210mm"
   inkscape:version="1.0.2 (e86c870879, 2021-01-15, custom)">
  <defs
     id="defs2">
    <inkscape:path-effect
       effect="bspline"
       id="path-effect5549"
       is_visible="true"
       lpeversion="1"
       weight="33.333333"
       steps="2"
       helper_size="0"
       apply_no_weight="true"
       apply_with_weight="true"
       only_selected="false" />
    <inkscape:path-effect
       effect="bspline"
       id="path-effect5305"
       is_visible="true"
       lpeversion="1"
       weight="33.333333"
       steps="2"
       helper_size="0"
       apply_no_weight="true"
       apply_with_weight="true"
       only_selected="false" />
    <inkscape:path-effect
       effect="bspline"
       id="path-effect5303"
       is_visible="true"
       lpeversion="1"
       weight="33.333333"
       steps="2"
       helper_size="0"
       apply_no_weight="true"
       apply_with_weight="true"
       only_selected="false" />
    <marker
       style="overflow:visible;"
       id="marker4852"
       refX="0.0"
       refY="0.0"
       orient="auto"
       inkscape:stockid="Arrow1Mend"
       inkscape:isstock="true">
      <path
         transform="scale(0.4) rotate(180) translate(10,0)"
         style="fill-rule:evenodd;stroke:#000000;stroke-width:1pt;stroke-opacity:1;fill:#000000;fill-opacity:1"
         d="M 0.0,0.0 L 5.0,-5.0 L -12.5,0.0 L 5.0,5.0 L 0.0,0.0 z "
         id="path4850" />
    </marker>
    <marker
       style="overflow:visible;"
       id="marker4842"
       refX="0.0"
       refY="0.0"
       orient="auto"
       inkscape:stockid="Arrow1Mend"
       inkscape:isstock="true">
      <path
         transform="scale(0.4) rotate(180) translate(10,0)"
         style="fill-rule:evenodd;stroke:#000000;stroke-width:1pt;stroke-opacity:1;fill:#000000;fill-opacity:1"
         d="M 0.0,0.0 L 5.0,-5.0 L -12.5,0.0 L 5.0,5.0 L 0.0,0.0 z "
         id="path4840" />
    </marker>
    <marker
       style="overflow:visible;"
       id="marker4832"
       refX="0.0"
       refY="0.0"
       orient="auto"
       inkscape:stockid="Arrow1Mend"
       inkscape:isstock="true">
      <path
         transform="scale(0.4) rotate(180) translate(10,0)"
         style="fill-rule:evenodd;stroke:#000000;stroke-width:1pt;stroke-opacity:1;fill:#000000;fill-opacity:1"
         d="M 0.0,0.0 L 5.0,-5.0 L -12.5,0.0 L 5.0,5.0 L 0.0,0.0 z "
         id="path4830" />
    </marker>
    <marker
       style="overflow:visible;"
       id="marker4584"
       refX="0.0"
       refY="0.0"
       orient="auto"
       inkscape:stockid="Arrow1Mend"
       inkscape:isstock="true">
      <path
         transform="scale(0.4) rotate(180) translate(10,0)"
         style="fill-rule:evenodd;stroke:#000000;stroke-width:1pt;stroke-opacity:1;fill:#000000;fill-opacity:1"
         d="M 0.0,0.0 L 5.0,-5.0 L -12.5,0.0 L 5.0,5.0 L 0.0,0.0 z "
         id="path4582" />
    </marker>
    <marker
       style="overflow:visible;"
       id="marker4574"
       refX="0.0"
       refY="0.0"
       orient="auto"
       inkscape:stockid="Arrow1Mend"
       inkscape:isstock="true">
      <path
         transform="scale(0.4) rotate(180) translate(10,0)"
         style="fill-rule:evenodd;stroke:#000000;stroke-width:1pt;stroke-opacity:1;fill:#000000;fill-opacity:1"
         d="M 0.0,0.0 L 5.0,-5.0 L -12.5,0.0 L 5.0,5.0 L 0.0,0.0 z "
         id="path4572" />
    </marker>
    <marker
       style="overflow:visible;"
       id="marker4564"
       refX="0.0"
       refY="0.0"
       orient="auto"
       inkscape:stockid="Arrow1Mend"
       inkscape:isstock="true">
      <path
         transform="scale(0.4) rotate(180) translate(10,0)"
         style="fill-rule:evenodd;stroke:#000000;stroke-width:1pt;stroke-opacity:1;fill:#000000;fill-opacity:1"
         d="M 0.0,0.0 L 5.0,-5.0 L -12.5,0.0 L 5.0,5.0 L 0.0,0.0 z "
         id="path4562" />
    </marker>
    <marker
       style="overflow:visible;"
       id="marker4344"
       refX="0.0"
       refY="0.0"
       orient="auto"
       inkscape:stockid="Arrow1Mend"
       inkscape:isstock="true">
      <path
         transform="scale(0.4) rotate(180) translate(10,0)"
         style="fill-rule:evenodd;stroke:#000000;stroke-width:1pt;stroke-opacity:1;fill:#000000;fill-opacity:1"
         d="M 0.0,0.0 L 5.0,-5.0 L -12.5,0.0 L 5.0,5.0 L 0.0,0.0 z "
         id="path4342" />
    </marker>
    <marker
       style="overflow:visible;"
       id="marker4334"
       refX="0.0"
       refY="0.0"
       orient="auto"
       inkscape:stockid="Arrow1Mend"
       inkscape:isstock="true">
      <path
         transform="scale(0.4) rotate(180) translate(10,0)"
         style="fill-rule:evenodd;stroke:#000000;stroke-width:1pt;stroke-opacity:1;fill:#000000;fill-opacity:1"
         d="M 0.0,0.0 L 5.0,-5.0 L -12.5,0.0 L 5.0,5.0 L 0.0,0.0 z "
         id="path4332" />
    </marker>
    <marker
       style="overflow:visible;"
       id="marker4324"
       refX="0.0"
       refY="0.0"
       orient="auto"
       inkscape:stockid="Arrow1Mend"
       inkscape:isstock="true">
      <path
         transform="scale(0.4) rotate(180) translate(10,0)"
         style="fill-rule:evenodd;stroke:#000000;stroke-width:1pt;stroke-opacity:1;fill:#000000;fill-opacity:1"
         d="M 0.0,0.0 L 5.0,-5.0 L -12.5,0.0 L 5.0,5.0 L 0.0,0.0 z "
         id="path4322" />
    </marker>
    <inkscape:path-effect
       effect="bspline"
       id="path-effect4264"
       is_visible="true"
       lpeversion="1"
       weight="33.333333"
       steps="2"
       helper_size="0"
       apply_no_weight="true"
       apply_with_weight="true"
       only_selected="false" />
    <inkscape:path-effect
       effect="bspline"
       id="path-effect4260"
       is_visible="true"
       lpeversion="1"
       weight="33.333333"
       steps="2"
       helper_size="0"
       apply_no_weight="true"
       apply_with_weight="true"
       only_selected="false" />
    <marker
       style="overflow:visible;"
       id="marker5127"
       refX="0.0"
       refY="0.0"
       orient="auto"
       inkscape:stockid="Arrow1Mend"
       inkscape:isstock="true">
      <path
         transform="scale(0.4) rotate(180) translate(10,0)"
         style="fill-rule:evenodd;stroke:#000000;stroke-width:1pt;stroke-opacity:1;fill:#000000;fill-opacity:1"
         d="M 0.0,0.0 L 5.0,-5.0 L -12.5,0.0 L 5.0,5.0 L 0.0,0.0 z "
         id="path5125" />
    </marker>
    <marker
       style="overflow:visible;"
       id="marker4476"
       refX="0.0"
       refY="0.0"
       orient="auto"
       inkscape:stockid="Arrow1Mend"
       inkscape:isstock="true">
      <path
         transform="scale(0.4) rotate(180) translate(10,0)"
         style="fill-rule:evenodd;stroke:#000000;stroke-width:1pt;stroke-opacity:1;fill:#000000;fill-opacity:1"
         d="M 0.0,0.0 L 5.0,-5.0 L -12.5,0.0 L 5.0,5.0 L 0.0,0.0 z "
         id="path4474" />
    </marker>
    <marker
       style="overflow:visible;"
       id="marker2391"
       refX="0.0"
       refY="0.0"
       orient="auto"
       inkscape:stockid="Arrow1Mend"
       inkscape:isstock="true">
      <path
         transform="scale(0.4) rotate(180) translate(10,0)"
         style="fill-rule:evenodd;stroke:#000000;stroke-width:1pt;stroke-opacity:1;fill:#000000;fill-opacity:1"
         d="M 0.0,0.0 L 5.0,-5.0 L -12.5,0.0 L 5.0,5.0 L 0.0,0.0 z "
         id="path2389" />
    </marker>
    <marker
       style="overflow:visible;"
       id="marker1987"
       refX="0.0"
       refY="0.0"
       orient="auto"
       inkscape:stockid="Arrow1Mend"
       inkscape:isstock="true">
      <path
         transform="scale(0.4) rotate(180) translate(10,0)"
         style="fill-rule:evenodd;stroke:#000000;stroke-width:1pt;stroke-opacity:1;fill:#000000;fill-opacity:1"
         d="M 0.0,0.0 L 5.0,-5.0 L -12.5,0.0 L 5.0,5.0 L 0.0,0.0 z "
         id="path1985" />
    </marker>
    <marker
       style="overflow:visible;"
       id="marker1977"
       refX="0.0"
       refY="0.0"
       orient="auto"
       inkscape:stockid="Arrow1Mend"
       inkscape:isstock="true">
      <path
         transform="scale(0.4) rotate(180) translate(10,0)"
         style="fill-rule:evenodd;stroke:#000000;stroke-width:1pt;stroke-opacity:1;fill:#000000;fill-opacity:1"
         d="M 0.0,0.0 L 5.0,-5.0 L -12.5,0.0 L 5.0,5.0 L 0.0,0.0 z "
         id="path1975" />
    </marker>
    <marker
       style="overflow:visible;"
       id="marker1671"
       refX="0.0"
       refY="0.0"
       orient="auto"
       inkscape:stockid="Arrow1Mend"
       inkscape:isstock="true">
      <path
         transform="scale(0.4) rotate(180) translate(10,0)"
         style="fill-rule:evenodd;stroke:#060000;stroke-width:1pt;stroke-opacity:1;fill:#060000;fill-opacity:1"
         d="M 0.0,0.0 L 5.0,-5.0 L -12.5,0.0 L 5.0,5.0 L 0.0,0.0 z "
         id="path1669" />
    </marker>
    <marker
       style="overflow:visible"
       id="marker4832-3"
       refX="0"
       refY="0"
       orient="auto"
       inkscape:stockid="Arrow1Mend"
       inkscape:isstock="true">
      <path
         transform="matrix(-0.4,0,0,-0.4,-4,0)"
         style="fill:#000000;fill-opacity:1;fill-rule:evenodd;stroke:#000000;stroke-width:1pt;stroke-opacity:1"
         d="M 0,0 5,-5 -12.5,0 5,5 Z"
         id="path4830-7" />
    </marker>
    <marker
       style="overflow:visible"
       id="marker4832-3-1"
       refX="0"
       refY="0"
       orient="auto"
       inkscape:stockid="Arrow1Mend"
       inkscape:isstock="true">
      <path
         transform="matrix(-0.4,0,0,-0.4,-4,0)"
         style="fill:#000000;fill-opacity:1;fill-rule:evenodd;stroke:#000000;stroke-width:1pt;stroke-opacity:1"
         d="M 0,0 5,-5 -12.5,0 5,5 Z"
         id="path4830-7-2" />
    </marker>
  </defs>
  <sodipodi:namedview
     id="base"
     pagecolor="#ffffff"
     bordercolor="#666666"
     borderopacity="1.0"
     inkscape:pageopacity="0.0"
     inkscape:pageshadow="2"
     inkscape:zoom="1.4142136"
     inkscape:cx="337.3332"
     inkscape:cy="195.12426"
     inkscape:document-units="mm"
     inkscape:current-layer="layer2"
     inkscape:document-rotation="0"
     showgrid="false"
     inkscape:window-width="1920"
     inkscape:window-height="1051"
     inkscape:window-x="-9"
     inkscape:window-y="-9"
     inkscape:window-maximized="1"
     showguides="true"
     inkscape:guide-bbox="true" />
  <metadata
     id="metadata5">
    <rdf:RDF>
      <cc:Work
         rdf:about="">
        <dc:format>image/svg+xml</dc:format>
        <dc:type
           rdf:resource="http://purl.org/dc/dcmitype/StillImage" />
        <dc:title></dc:title>
      </cc:Work>
    </rdf:RDF>
  </metadata>
  <g
     inkscape:label="Layer 1"
     inkscape:groupmode="layer"
     id="layer1"
     style="display:inline">
    <path
       style="fill:none;stroke:#000000;stroke-width:0.5;stroke-linecap:round;stroke-miterlimit:4;stroke-dasharray:0.5, 1;stroke-dashoffset:0"
       d="M 68.360145,95.61985 V 42.74976"
       id="path4826" />
    <path
       style="fill:none;stroke:#000000;stroke-width:0.5;stroke-linecap:round;stroke-miterlimit:4;stroke-dasharray:none"
       d="M 68.360145,104.39568 V 95.61985"
       id="path1386" />
    <path
       style="fill:none;stroke:#000000;stroke-width:0.5;stroke-linecap:round;stroke-miterlimit:4;stroke-dasharray:none;marker-end:url(#marker4564)"
       d="M 82.237161,60.601952 H 112.2532"
       id="path4560" />
    <path
       style="fill:none;stroke:#000000;stroke-width:0.5;stroke-linecap:round;stroke-miterlimit:4;stroke-dasharray:0.5, 1;stroke-dashoffset:0"
       d="M 54.561497,60.601952 H 82.237161"
       id="path4558" />
    <path
       style="fill:none;stroke:#000000;stroke-width:0.5;stroke-linecap:round;stroke-miterlimit:4;stroke-dasharray:none"
       d="M 24.695695,60.601952 H 54.561497"
       id="path1379" />
    <path
       style="fill:none;stroke:#000000;stroke-width:0.5;stroke-linecap:round;stroke-miterlimit:4;stroke-dasharray:none;marker-end:url(#marker4324)"
       d="M 84.189163,50.255118 100.11145,39.832598"
       id="path4320" />
    <path
       style="fill:none;stroke:#000000;stroke-width:0.5;stroke-linecap:round;stroke-miterlimit:4;stroke-dasharray:0.5, 1;stroke-dashoffset:0"
       d="m 62.107456,64.709518 22.081707,-14.4544"
       id="path4318" />
  </g>
  <g
     inkscape:groupmode="layer"
     id="layer3"
     inkscape:label="shape 2">
    <path
       style="opacity:0.654723;fill:#ff9955;stroke:#ff6600;stroke-width:0.265;stroke-linecap:round;stroke-linejoin:miter;stroke-miterlimit:4;stroke-dasharray:none;stroke-opacity:1"
       d="m 54.556709,61.166201 c -0.0032,0.543572 -0.0095,1.630453 -0.0899,2.460491 -0.08037,0.830037 -0.234706,1.403288 -0.405581,2.141936 -0.170876,0.738648 -0.358285,1.642623 -0.573265,2.552128 -0.214979,0.909504 -0.45751,1.824505 -0.94259,3.186002 -0.48508,1.361496 -1.21267,3.169446 -1.824523,4.613632 -0.611853,1.444185 -1.107938,2.524547 -1.56545,3.489177 -0.457513,0.96463 -0.876428,1.813484 -1.333939,2.667864 -0.457511,0.85438 -0.953595,1.714259 -1.367011,2.458413 -0.413417,0.744155 -0.744139,1.372527 -0.951294,1.806498 -0.207155,0.433972 -0.290731,0.673462 -0.329283,0.927083 -0.03855,0.25362 -0.03214,0.521237 0.26332,1.073995 0.295459,0.552758 0.879736,1.390587 1.77277,2.129155 0.893034,0.738567 2.094659,1.377964 3.43964,1.956717 1.34498,0.578752 2.833231,1.096885 4.591619,1.526807 1.758388,0.429922 3.78682,0.771668 5.749156,1.008677 1.962336,0.23701 3.858478,0.3693 5.864911,0.407872 2.006434,0.03857 4.123058,-0.01655 6.173584,-0.165393 2.050527,-0.148841 4.034861,-0.39137 5.677474,-0.678014 1.642614,-0.286645 2.943455,-0.617368 4.216764,-0.981178 1.273309,-0.36381 2.519029,-0.760679 3.637962,-1.251263 1.118933,-0.490584 2.111104,-1.074862 2.932382,-1.697718 0.821277,-0.622857 1.471691,-1.284293 1.807208,-1.847932 0.335517,-0.563639 0.356117,-1.029689 -0.123358,-2.203765 -0.479475,-1.174076 -1.459162,-3.056157 -2.367953,-4.851615 -0.908791,-1.795459 -1.746626,-3.504196 -2.667186,-5.72562 -0.920559,-2.221423 -1.92375,-4.955395 -2.557684,-7.127209 -0.633933,-2.171815 -0.898511,-3.781331 -1.047362,-5.385398 -0.14885,-1.604068 -0.181923,-3.202559 -0.143351,-4.608186 0.03857,-1.405628 0.148813,-2.618277 0.54568,-4.283006 0.396866,-1.664729 1.08036,-3.781354 1.907191,-5.876016 0.826831,-2.094662 1.796948,-4.167187 2.916088,-6.341136 1.119141,-2.173948 2.387229,-4.449159 3.070011,-5.801111 0.682782,-1.351951 0.780224,-1.780689 0.791132,-2.247056 0.01091,-0.466366 -0.0648,-0.970422 -0.471878,-1.635887 -0.407075,-0.665465 -1.145687,-1.492271 -2.435512,-2.264056 -1.289826,-0.771785 -3.130855,-1.488353 -4.900274,-2.067154 -1.769419,-0.578801 -3.467126,-1.019764 -5.24207,-1.339496 -1.774943,-0.319732 -3.626989,-0.518166 -5.727151,-0.661493 -2.100161,-0.143327 -4.448291,-0.23152 -6.438214,-0.19295 -1.989923,0.03857 -3.621486,0.20393 -5.038131,0.380316 -1.416646,0.176386 -2.618269,0.363796 -3.74828,0.567744 -1.130011,0.203948 -2.188323,0.424429 -3.08131,0.633889 -0.892987,0.209461 -1.620576,0.407894 -2.348211,0.655941 -0.727634,0.248047 -1.455223,0.545697 -2.282085,0.981167 -0.826863,0.435471 -1.752886,1.008724 -2.48603,1.515857 -0.733144,0.507133 -1.273323,0.948095 -1.637169,1.422231 -0.363846,0.474136 -0.551255,0.981244 -0.600431,1.510634 -0.04918,0.529391 0.03978,1.080879 0.161122,1.477761 0.121343,0.396881 0.274918,0.639128 0.395755,0.903575 0.120837,0.264447 0.20903,0.551077 0.479179,1.052686 0.270149,0.501609 0.722137,1.218174 1.378078,2.381257 0.655941,1.163083 1.515821,2.772602 2.144195,4.029383 0.628375,1.25678 1.025242,2.160755 1.444162,3.180515 0.41892,1.01976 0.859883,2.155239 1.234696,3.263191 0.374812,1.107951 0.683487,2.188313 0.953588,3.108851 0.270101,0.920538 0.501607,1.681199 0.692163,2.857551 0.190557,1.176352 0.340222,2.768344 0.415043,3.564215 0.07482,0.79587 0.07478,0.79587 0.0716,1.339441 z"
       id="path5547"
       inkscape:path-effect="#path-effect5549"
       inkscape:original-d="m 54.559885,60.62263 c -0.0061,1.087144 -0.01243,2.174026 -0.01905,3.260643 -0.15408,0.57354 -0.308416,1.146791 -0.46302,1.719791 -0.187153,0.904275 -0.374563,1.80825 -0.56224,2.71198 -0.242276,0.915299 -0.484804,1.8303 -0.727604,2.745052 -0.727356,1.808286 -1.454944,3.616237 -2.182813,5.423958 -0.495839,1.080667 -0.991923,2.161029 -1.488281,3.241146 -0.418669,0.849153 -0.837583,1.698008 -1.256771,2.546614 -0.495839,0.860177 -0.991923,1.720056 -1.488281,2.579688 -0.330472,0.628663 -0.661194,1.257035 -0.992187,1.885156 -0.08332,0.239765 -0.166889,0.479258 -0.250733,0.718489 0.0067,0.267891 0.01307,0.535509 0.01924,0.802865 0.584566,0.838128 1.168842,1.675958 1.752865,2.513538 1.201939,0.63969 2.403562,1.27909 3.604948,1.91823 1.488575,0.51842 2.976827,1.03655 4.464844,1.55443 2.028777,0.34202 4.057208,0.68377 6.085416,1.02526 1.896483,0.13256 3.792625,0.26485 5.688542,0.39688 2.116973,-0.0549 4.233598,-0.10998 6.35,-0.16537 1.984679,-0.24228 3.969014,-0.4848 5.953125,-0.7276 1.301157,-0.33048 2.601999,-0.6612 3.902604,-0.99219 1.246036,-0.39662 2.491756,-0.79349 3.737236,-1.19063 0.99247,-0.58403 1.98464,-1.16831 2.97656,-1.75286 0.65072,-0.66121 1.30113,-1.32265 1.95131,-1.98438 0.0208,-0.4658 0.0414,-0.93185 0.0618,-1.398173 -0.97946,-1.881891 -1.95915,-3.76397 -2.93912,-5.646354 -0.8376,-1.708536 -1.67544,-3.417271 -2.51355,-5.126302 -1.00297,-2.733817 -2.006156,-5.467791 -3.009633,-8.202083 -0.264324,-1.609317 -0.528902,-3.218833 -0.79375,-4.828646 -0.03281,-1.598292 -0.06588,-3.196783 -0.09922,-4.795572 0.110509,-1.212435 0.22075,-2.425084 0.330729,-3.638021 0.683784,-2.116445 1.36728,-4.233069 2.050521,-6.35 0.970423,-2.072346 1.940533,-4.144875 2.910413,-6.217708 1.2684,-2.275036 2.53649,-4.550246 3.80434,-6.825769 0.0977,-0.428487 0.19515,-0.857223 0.29233,-1.286235 -0.0755,-0.503817 -0.15116,-1.00788 -0.22714,-1.512215 -0.73838,-0.826574 -1.47699,-1.653381 -2.21588,-2.480469 -1.84083,-0.71633 -3.68186,-1.432896 -5.523177,-2.149739 -1.697514,-0.440717 -3.395221,-0.881679 -5.093229,-1.322917 -1.851856,-0.198178 -3.703902,-0.39661 -5.55625,-0.595312 -2.34796,-0.08793 -4.69609,-0.176126 -7.044532,-0.264584 -1.631365,0.165632 -3.262928,0.330994 -4.894791,0.496094 -1.20141,0.187682 -2.403033,0.375092 -3.604948,0.56224 -1.05809,0.220755 -2.116402,0.441237 -3.175,0.661458 -0.727355,0.198705 -1.454944,0.397139 -2.182812,0.595312 -0.727356,0.297926 -1.454944,0.595577 -2.182813,0.892969 -0.925795,0.57354 -1.851819,1.146792 -2.778125,1.719792 -0.539938,0.441245 -1.080116,0.882208 -1.620573,1.322916 -0.187153,0.507392 -0.374562,1.0145 -0.562239,1.521355 0.08922,0.551775 0.178181,1.103262 0.266872,1.654497 0.153844,0.24252 0.307419,0.484767 0.460732,0.726752 0.08846,0.286901 0.176654,0.57353 0.264583,0.859896 0.452271,0.71686 0.904259,1.433425 1.35599,2.14974 0.860176,1.609844 1.720056,3.219363 2.579687,4.828646 0.397148,0.904274 0.794015,1.808249 1.190625,2.711979 0.441246,1.13579 0.882208,2.27127 1.322917,3.40651 0.308951,1.080667 0.617625,2.161029 0.926041,3.241146 0.231781,0.760957 0.463286,1.521619 0.694532,2.282031 0.149936,1.592321 0.299601,3.184313 0.449006,4.776076 z" />
  </g>
  <g
     inkscape:groupmode="layer"
     id="layer2"
     inkscape:label="shape"
     style="display:inline">
    <path
       style="fill:none;stroke:#ff6600;stroke-width:0.7;stroke-linecap:round;stroke-miterlimit:4;stroke-dasharray:0.7, 2.1;stroke-dashoffset:0"
       d="m 54.559886,60.62263 c 0,-2.563539 6.311984,-4.641699 13.843227,-4.641699 7.531244,0 13.829454,2.078159 13.829454,4.641699"
       id="path4296"
       sodipodi:nodetypes="csc" />
    <path
       style="fill:none;stroke:#ff6600;stroke-width:0.7;stroke-linecap:round;stroke-miterlimit:4;stroke-dasharray:none;stroke-dashoffset:0"
       d="m 82.232567,60.62263 c 0,2.56354 -6.29821,4.641699 -13.829454,4.641699 -7.531243,0 -13.843227,-2.07816 -13.843227,-4.641699"
       id="path4234"
       sodipodi:nodetypes="csc" />
    <path
       id="path4236"
       style="fill:none;stroke:#ff6600;stroke-width:0.7;stroke-linecap:round;stroke-miterlimit:4;stroke-dasharray:none;stroke-dashoffset:0"
       d="M 91.710415,34.538459 A 23.307292,8.184092 0 0 1 68.403119,42.722551 23.307292,8.184092 0 0 1 45.095827,34.538459 23.307292,8.184092 0 0 1 68.403119,26.354367 23.307292,8.184092 0 0 1 91.710415,34.538459 Z" />
    <path
       style="fill:none;stroke:#ff6600;stroke-width:0.7;stroke-linecap:round;stroke-miterlimit:4;stroke-dasharray:0.7, 2.1;stroke-dashoffset:0"
       d="m 45.128899,87.455148 c 1.683799,-4.373093 10.420223,-8.17225 23.274219,-8.17225 12.853999,0 21.473497,4.07979 23.274227,8.17225"
       id="path4292"
       sodipodi:nodetypes="csc" />
    <path
       style="fill:none;stroke:#ff6600;stroke-width:0.7;stroke-linecap:round;stroke-miterlimit:4;stroke-dasharray:none;stroke-dashoffset:0"
       d="m 91.677345,87.455148 c 7e-5,4.513422 -10.420178,8.172292 -23.274227,8.172292 -12.854045,0 -23.274288,-3.65887 -23.274219,-8.172292"
       id="path4238" />
    <path
       style="fill:none;stroke:#ff6600;stroke-width:0.7;stroke-linecap:round;stroke-linejoin:miter;stroke-miterlimit:4;stroke-dasharray:none;stroke-opacity:1"
       d="m 91.418085,35.824694 c -4.638498,8.266066 -9.276949,16.532048 -9.233583,25.137326 0.04337,8.605278 4.768142,17.549273 9.492843,26.493126"
       id="path4258"
       inkscape:original-d="m 91.418085,35.824694 c -4.63818,8.266245 -9.276638,16.532222 -13.915348,24.797937 4.72523,8.944615 9.450008,17.888609 14.174608,26.832515"
       inkscape:path-effect="#path-effect5303"
       sodipodi:nodetypes="ccc" />
    <path
       style="fill:none;stroke:#ff6600;stroke-width:0.7;stroke-linecap:round;stroke-linejoin:miter;stroke-miterlimit:4;stroke-dasharray:none;stroke-opacity:1"
       d="m 45.315774,35.639855 c 4.653119,8.363523 9.306182,16.726944 9.268444,25.369828 -0.03774,8.642883 -4.766045,17.565 -9.494187,26.486805"
       id="path4262"
       sodipodi:nodetypes="ccc"
       inkscape:original-d="m 45.315774,35.639855 c 4.653209,8.363473 9.306272,16.726894 13.959189,25.090264 -4.728166,8.922615 -9.456474,17.844731 -14.184932,26.766369"
       inkscape:path-effect="#path-effect5305" />
    <path
       style="display:inline;fill:none;stroke:#000000;stroke-width:0.5;stroke-linecap:round;stroke-miterlimit:4;stroke-dasharray:none"
       d="M 34.202696,82.975616 62.107456,64.709518"
       id="path1542" />
    <path
       style="display:inline;fill:none;stroke:#000000;stroke-width:0.5;stroke-linecap:butt;stroke-miterlimit:4;stroke-dasharray:none;marker-end:url(#marker4832-3-1)"
       d="M 68.360139,42.372234 V 16.838178"
       id="path4828" />
  </g>
</svg>
