<?xml version="1.0" encoding="UTF-8" standalone="no"?>
<svg
   xmlns:dc="http://purl.org/dc/elements/1.1/"
   xmlns:cc="http://creativecommons.org/ns#"
   xmlns:rdf="http://www.w3.org/1999/02/22-rdf-syntax-ns#"
   xmlns:svg="http://www.w3.org/2000/svg"
   xmlns="http://www.w3.org/2000/svg"
   xmlns:sodipodi="http://sodipodi.sourceforge.net/DTD/sodipodi-0.dtd"
   xmlns:inkscape="http://www.inkscape.org/namespaces/inkscape"
   width="210mm"
   height="297mm"
   viewBox="0 0 210 297"
   version="1.1"
   id="svg8"
   sodipodi:docname="y=x.svg"
   inkscape:version="1.0.2 (e86c870879, 2021-01-15, custom)">
  <defs
     id="defs2">
    <marker
       style="overflow:visible;"
       id="marker1345"
       refX="0.0"
       refY="0.0"
       orient="auto"
       inkscape:stockid="Arrow1Mend"
       inkscape:isstock="true">
      <path
         transform="scale(0.4) rotate(180) translate(10,0)"
         style="fill-rule:evenodd;stroke:#060000;stroke-width:1pt;stroke-opacity:1;fill:#060000;fill-opacity:1"
         d="M 0.0,0.0 L 5.0,-5.0 L -12.5,0.0 L 5.0,5.0 L 0.0,0.0 z "
         id="path1343" />
    </marker>
    <marker
       style="overflow:visible;"
       id="marker1335"
       refX="0.0"
       refY="0.0"
       orient="auto"
       inkscape:stockid="Arrow1Mend"
       inkscape:isstock="true">
      <path
         transform="scale(0.4) rotate(180) translate(10,0)"
         style="fill-rule:evenodd;stroke:#060000;stroke-width:1pt;stroke-opacity:1;fill:#060000;fill-opacity:1"
         d="M 0.0,0.0 L 5.0,-5.0 L -12.5,0.0 L 5.0,5.0 L 0.0,0.0 z "
         id="path1333" />
    </marker>
  </defs>
  <sodipodi:namedview
     id="base"
     pagecolor="#ffffff"
     bordercolor="#666666"
     borderopacity="1.0"
     inkscape:pageopacity="0.0"
     inkscape:pageshadow="2"
     inkscape:zoom="1.4142136"
     inkscape:cx="342.99694"
     inkscape:cy="301.34636"
     inkscape:document-units="mm"
     inkscape:current-layer="layer1"
     inkscape:document-rotation="0"
     showgrid="false"
     inkscape:window-width="1920"
     inkscape:window-height="1051"
     inkscape:window-x="-9"
     inkscape:window-y="-9"
     inkscape:window-maximized="1" />
  <metadata
     id="metadata5">
    <rdf:RDF>
      <cc:Work
         rdf:about="">
        <dc:format>image/svg+xml</dc:format>
        <dc:type
           rdf:resource="http://purl.org/dc/dcmitype/StillImage" />
        <dc:title></dc:title>
      </cc:Work>
    </rdf:RDF>
  </metadata>
  <g
     inkscape:label="Layer 1"
     inkscape:groupmode="layer"
     id="layer1">
    <path
       style="fill:#ff6600;stroke:#ff6600;stroke-width:0.7;stroke-linecap:round;stroke-linejoin:round;stroke-miterlimit:4;stroke-dasharray:none"
       d="m 43.0855,119.898 c 1.0806,-1.081 2.1612,-2.161 3.2418,-3.242 1.0805,-1.081 2.1611,-2.161 3.2417,-3.242 1.0806,-1.08 2.1611,-2.161 3.2417,-3.241 1.0806,-1.081 2.1612,-2.162 3.2417,-3.242 1.0806,-1.081 2.1612,-2.161 3.2418,-3.242 1.0806,-1.08 2.1611,-2.161 3.2417,-3.242 1.0806,-1.0802 2.1612,-2.1607 3.2417,-3.2413 1.0806,-1.0806 2.1612,-2.1612 3.2418,-3.2417 1.0806,-1.0806 2.1611,-2.1612 3.2417,-3.2418 1.0806,-1.0805 2.1612,-2.1611 3.2417,-3.2417 1.0806,-1.0806 2.1612,-2.1612 3.2418,-3.2417 1.0805,-1.0806 2.1611,-2.1612 3.2417,-3.2418 1.0806,-1.0805 2.1612,-2.1611 3.2417,-3.2417 1.0806,-1.0806 2.1612,-2.1611 3.2418,-3.2417 1.0805,-1.0806 2.1611,-2.1612 3.2417,-3.2418 1.0806,-1.0805 2.1611,-2.1611 3.2417,-3.2417 1.0806,-1.0806 2.1612,-2.1611 3.2418,-3.2417 1.0805,-1.0806 2.161,-2.1612 3.242,-3.2418 1.08,-1.0805 2.161,-2.1611 3.241,-3.2417 1.081,-1.0806 2.162,-2.1611 3.242,-3.2417 1.081,-1.0806 2.161,-2.1612 3.242,-3.2417 1.08,-1.0806 2.161,-2.1612 3.242,-3.2418 1.08,-1.0806 2.161,-2.1611 3.241,-3.2417 1.081,-1.0806 2.161,-2.1612 3.242,-3.2417 1.081,-1.0806 2.161,-2.1612 3.242,-3.2418 1.08,-1.0805 2.161,-2.1611 3.242,-3.2417 1.08,-1.0806 2.161,-2.1612 3.241,-3.2417 1.081,-1.0806 2.161,-2.1612 3.242,-3.2418 1.081,-1.0805 2.161,-2.1611 3.242,-3.2417"
       id="path1049" />
    <path
       style="fill:none;stroke:#060000;stroke-width:0.5;stroke-linecap:round;stroke-linejoin:round;stroke-miterlimit:4;stroke-dasharray:none;marker-end:url(#marker1345)"
       d="M 90.0906,122.767 V 23.0191"
       id="path1047" />
    <path
       style="fill:none;stroke:#060000;stroke-width:0.5;stroke-linecap:round;stroke-linejoin:round;stroke-miterlimit:4;stroke-dasharray:none;marker-end:url(#marker1335)"
       d="m 40.2167,72.8927 h 99.7479"
       id="path1040" />
  </g>
</svg>
