<?xml version="1.0" encoding="UTF-8" standalone="no"?>
<svg
   xmlns:dc="http://purl.org/dc/elements/1.1/"
   xmlns:cc="http://creativecommons.org/ns#"
   xmlns:rdf="http://www.w3.org/1999/02/22-rdf-syntax-ns#"
   xmlns:svg="http://www.w3.org/2000/svg"
   xmlns="http://www.w3.org/2000/svg"
   xmlns:sodipodi="http://sodipodi.sourceforge.net/DTD/sodipodi-0.dtd"
   xmlns:inkscape="http://www.inkscape.org/namespaces/inkscape"
   sodipodi:docname="loop.svg"
   id="svg8"
   version="1.1"
   viewBox="0 0 210 297"
   height="297mm"
   width="210mm"
   inkscape:version="1.0.2 (e86c870879, 2021-01-15, custom)">
  <defs
     id="defs2">
    <marker
       style="overflow:visible;"
       id="marker4486"
       refX="0.0"
       refY="0.0"
       orient="auto"
       inkscape:stockid="Arrow1Mend"
       inkscape:isstock="true">
      <path
         transform="scale(0.4) rotate(180) translate(10,0)"
         style="fill-rule:evenodd;stroke:#000000;stroke-width:1pt;stroke-opacity:1;fill:#000000;fill-opacity:1"
         d="M 0.0,0.0 L 5.0,-5.0 L -12.5,0.0 L 5.0,5.0 L 0.0,0.0 z "
         id="path4484" />
    </marker>
    <marker
       style="overflow:visible;"
       id="marker4476"
       refX="0.0"
       refY="0.0"
       orient="auto"
       inkscape:stockid="Arrow1Mend"
       inkscape:isstock="true">
      <path
         transform="scale(0.4) rotate(180) translate(10,0)"
         style="fill-rule:evenodd;stroke:#000000;stroke-width:1pt;stroke-opacity:1;fill:#000000;fill-opacity:1"
         d="M 0.0,0.0 L 5.0,-5.0 L -12.5,0.0 L 5.0,5.0 L 0.0,0.0 z "
         id="path4474" />
    </marker>
    <marker
       style="overflow:visible;"
       id="marker2391"
       refX="0.0"
       refY="0.0"
       orient="auto"
       inkscape:stockid="Arrow1Mend"
       inkscape:isstock="true">
      <path
         transform="scale(0.4) rotate(180) translate(10,0)"
         style="fill-rule:evenodd;stroke:#000000;stroke-width:1pt;stroke-opacity:1;fill:#000000;fill-opacity:1"
         d="M 0.0,0.0 L 5.0,-5.0 L -12.5,0.0 L 5.0,5.0 L 0.0,0.0 z "
         id="path2389" />
    </marker>
    <marker
       style="overflow:visible;"
       id="marker1987"
       refX="0.0"
       refY="0.0"
       orient="auto"
       inkscape:stockid="Arrow1Mend"
       inkscape:isstock="true">
      <path
         transform="scale(0.4) rotate(180) translate(10,0)"
         style="fill-rule:evenodd;stroke:#000000;stroke-width:1pt;stroke-opacity:1;fill:#000000;fill-opacity:1"
         d="M 0.0,0.0 L 5.0,-5.0 L -12.5,0.0 L 5.0,5.0 L 0.0,0.0 z "
         id="path1985" />
    </marker>
    <marker
       style="overflow:visible;"
       id="marker1977"
       refX="0.0"
       refY="0.0"
       orient="auto"
       inkscape:stockid="Arrow1Mend"
       inkscape:isstock="true">
      <path
         transform="scale(0.4) rotate(180) translate(10,0)"
         style="fill-rule:evenodd;stroke:#000000;stroke-width:1pt;stroke-opacity:1;fill:#000000;fill-opacity:1"
         d="M 0.0,0.0 L 5.0,-5.0 L -12.5,0.0 L 5.0,5.0 L 0.0,0.0 z "
         id="path1975" />
    </marker>
    <marker
       style="overflow:visible;"
       id="marker1671"
       refX="0.0"
       refY="0.0"
       orient="auto"
       inkscape:stockid="Arrow1Mend"
       inkscape:isstock="true">
      <path
         transform="scale(0.4) rotate(180) translate(10,0)"
         style="fill-rule:evenodd;stroke:#060000;stroke-width:1pt;stroke-opacity:1;fill:#060000;fill-opacity:1"
         d="M 0.0,0.0 L 5.0,-5.0 L -12.5,0.0 L 5.0,5.0 L 0.0,0.0 z "
         id="path1669" />
    </marker>
  </defs>
  <sodipodi:namedview
     id="base"
     pagecolor="#ffffff"
     bordercolor="#666666"
     borderopacity="1.0"
     inkscape:pageopacity="0.0"
     inkscape:pageshadow="2"
     inkscape:zoom="1.4142136"
     inkscape:cx="332.95004"
     inkscape:cy="241.34331"
     inkscape:document-units="mm"
     inkscape:current-layer="layer1"
     inkscape:document-rotation="0"
     showgrid="false"
     inkscape:window-width="1920"
     inkscape:window-height="1051"
     inkscape:window-x="-9"
     inkscape:window-y="-9"
     inkscape:window-maximized="1" />
  <metadata
     id="metadata5">
    <rdf:RDF>
      <cc:Work
         rdf:about="">
        <dc:format>image/svg+xml</dc:format>
        <dc:type
           rdf:resource="http://purl.org/dc/dcmitype/StillImage" />
        <dc:title></dc:title>
      </cc:Work>
    </rdf:RDF>
  </metadata>
  <g
     inkscape:label="Layer 1"
     inkscape:groupmode="layer"
     id="layer1">
    <path
       style="fill:none;stroke:#ff6600;stroke-width:0.7;stroke-linecap:round;stroke-linejoin:round;stroke-miterlimit:4;stroke-dasharray:none"
       d="m 51.2897,53.8822 c 12.1935,10.0183 20.2083,14.6681 28.3905,17.2326 8.1823,2.5645 16.2354,2.5248 24.1658,0.0149 7.931,-2.5099 15.551,-7.6964 20.755,-13.5959 5.205,-5.8994 7.718,-12.1421 7.807,-16.4738 0.088,-4.3317 -1.973,-6.8152 -4.443,-7.8882 -2.471,-1.0731 -5.33,-0.8647 -7.885,-0.2119 -2.555,0.6528 -4.853,1.7552 -6.824,2.9167 -1.971,1.1616 -3.629,2.3978 -5.048,3.5802 -1.419,1.1824 -2.599,2.3176 -3.616,3.3756 -1.016,1.0581 -1.867,2.0411 -2.605,2.9507 -0.739,0.9096 -1.365,1.7462 -1.914,2.5201 -0.5485,0.7738 -1.019,1.4847 -1.4351,2.1437 -0.416,0.6589 -0.7771,1.2657 -1.0989,1.8299 -0.3219,0.5643 -0.6042,1.0857 -0.8577,1.5724 -0.2535,0.4867 -0.478,0.9383 -0.681,1.3612 -0.2029,0.423 -0.3841,0.817 -0.5489,1.1874 -0.1648,0.3703 -0.3131,0.7168 -0.4487,1.0434 -0.1355,0.3265 -0.2583,0.6332 -0.3711,0.9231 -0.1128,0.2899 -0.2155,0.563 -0.3103,0.8219 -0.0948,0.2589 -0.1816,0.5035 -0.2621,0.7361 -0.0804,0.2325 -0.1544,0.4528 -0.2232,0.6628 -0.0688,0.2099 -0.1324,0.4093 -0.1917,0.5997 -0.0593,0.1904 -0.1143,0.3717 -0.1658,0.5451 -0.0515,0.1735 -0.0994,0.339 -0.1444,0.4976 -0.0449,0.1586 -0.0869,0.3103 -0.1264,0.4559 -0.0395,0.1457 -0.0765,0.2852 -0.1114,0.4193 -0.0349,0.1341 -0.0676,0.2628 -0.0986,0.3867 -0.0309,0.124 -0.0601,0.2431 -0.0877,0.358 -0.0275,0.1148 -0.0536,0.2254 -0.0783,0.3321 -0.0247,0.1067 -0.048,0.2096 -0.0703,0.309 -0.0222,0.0995 -0.0432,0.1954 -0.0632,0.2883 -0.02,0.0928 -0.0391,0.1826 -0.0572,0.2695 -0.0181,0.0869 -0.0353,0.1709 -0.0518,0.2525 -0.0165,0.0815 -0.0321,0.1604 -0.0471,0.237 -0.015,0.0766 -0.0293,0.1509 -0.043,0.223 -0.0137,0.0721 -0.0268,0.1421 -0.0393,0.2101 -0.0125,0.068 -0.0245,0.134 -0.036,0.1983 -0.0115,0.0643 -0.0225,0.1267 -0.0331,0.1875 -0.0106,0.0608 -0.0208,0.1199 -0.0305,0.1775 -0.0098,0.0577 -0.0192,0.1137 -0.0282,0.1684 -0.009,0.0547 -0.0177,0.1079 -0.0261,0.1599 -0.0083,0.0519 -0.0164,0.1025 -0.0241,0.1519 -0.0078,0.0495 -0.0152,0.0977 -0.0224,0.1447 -0.0072,0.0471 -0.0142,0.093 -0.0209,0.1379 -0.0067,0.0449 -0.0132,0.0887 -0.0194,0.1316 -0.0063,0.0428 -0.0124,0.0847 -0.0182,0.1256 -0.0058,0.041 -0.0115,0.081 -0.017,0.1202 -0.0054,0.0392 -0.0107,0.0775 -0.0158,0.115 -0.0052,0.0375 -0.0101,0.0742 -0.0149,0.1102 -0.0049,0.0359 -0.0095,0.0711 -0.014,0.1056 -0.0045,0.0345 -0.0089,0.0683 -0.0132,0.1014 -0.0042,0.0331 -0.0083,0.0655 -0.0123,0.0973 -0.004,0.0318 -0.0079,0.063 -0.0117,0.0936 -0.0038,0.0306 -0.0074,0.0606 -0.011,0.09 -0.0036,0.0295 -0.007,0.0583 -0.0104,0.0867 -0.0034,0.0283 -0.0066,0.0562 -0.0098,0.0835 -0.0032,0.0273 -0.0063,0.0541 -0.0093,0.0805 -0.003,0.0263 -0.006,0.0522 -0.0088,0.0776 -0.0029,0.0254 -0.0056,0.0504 -0.0084,0.0749 -0.0027,0.0246 -0.0053,0.0487 -0.0079,0.0724 -0.0026,0.0237 -0.0051,0.047 -0.0075,0.07 -0.0025,0.0229 -0.0049,0.0454 -0.0072,0.0676 -0.0023,0.0222 -0.0046,0.044 -0.0068,0.0654 -0.0022,0.0215 -0.0044,0.0426 -0.0065,0.0634 -0.0021,0.0208 -0.0042,0.0412 -0.0062,0.0613 -0.002,0.0202 -0.0039,0.04 -0.0059,0.0595 -0.0019,0.0195 -0.0038,0.0387 -0.0056,0.0576 -0.0018,0.019 -0.0036,0.0376 -0.0054,0.0559 -0.0017,0.0184 -0.0035,0.0365 -0.0051,0.0543 -0.0017,0.0178 -0.0033,0.0354 -0.0049,0.0527 -0.0017,0.0173 -0.0032,0.0343 -0.0048,0.0511 -0.0015,0.0168 -0.003,0.0334 -0.0045,0.0497 -0.0014,0.0164 -0.0029,0.0325 -0.0043,0.0483 -0.0014,0.0159 -0.0028,0.0316 -0.0041,0.047 -0.0014,0.0155 -0.0027,0.0307 -0.004,0.0457 -0.0013,0.0151 -0.0026,0.0299 -0.0038,0.0445 -0.0013,0.0146 -0.0025,0.0291 -0.0037,0.0433 -0.0012,0.0142 -0.0024,0.0283 -0.0035,0.0422 -0.0012,0.0138 -0.0023,0.0275 -0.0034,0.0411 -0.0011,0.0135 -0.0022,0.0268 -0.0033,0.04 -0.001,0.0132 -0.0021,0.0262 -0.0031,0.039 -0.001,0.0129 -0.002,0.0255 -0.003,0.0381 -0.001,0.0125 -0.002,0.0249 -0.0029,0.0371 -0.001,0.0122 -0.0019,0.0243 -0.0028,0.0362 -10e-4,0.012 -0.0019,0.0237 -0.0027,0.0354 -9e-4,0.0116 -0.0018,0.0231 -0.0027,0.0345 -8e-4,0.0114 -0.0017,0.0226 -0.0025,0.0337 -8e-4,0.0111 -0.0016,0.0221 -0.0024,0.033 -8e-4,0.0108 -0.0016,0.0215 -0.0024,0.0321 -7e-4,0.0106 -0.0015,0.0211 -0.0022,0.0315 -8e-4,0.0104 -0.0015,0.0206 -0.0022,0.0307 -7e-4,0.0102 -0.0014,0.0202 -0.0021,0.0301 -7e-4,0.0099 -0.0014,0.0197 -0.0021,0.0294 -7e-4,0.0097 -0.0013,0.0193 -0.002,0.0288 -6e-4,0.0095 -0.0013,0.0189 -0.0019,0.0282 -6e-4,0.0093 -0.0013,0.0185 -0.0019,0.0275 -6e-4,0.0091 -0.0012,0.0181 -0.0018,0.027 -6e-4,0.0089 -0.0011,0.0177 -0.0017,0.0265 -6e-4,0.0087 -0.0012,0.0173 -0.0017,0.0259 -6e-4,0.0085 -0.0011,0.017 -0.0017,0.0253 -5e-4,0.0084 -0.001,0.0167 -0.0016,0.0249 -5e-4,0.0082 -10e-4,0.0163 -0.0015,0.0243 -5e-4,0.0081 -0.001,0.016 -0.0015,0.0239 -5e-4,0.0079 -10e-4,0.0157 -0.0015,0.0234 -4e-4,0.0078 -9e-4,0.0154 -0.0014,0.023 -4e-4,0.0076 -9e-4,0.0151 -0.0014,0.0225 -4e-4,0.0075 -8e-4,0.0148 -0.0013,0.0221 -4e-4,0.0073 -9e-4,0.0145 -0.0013,0.0217 -4e-4,0.0071 -8e-4,0.0142 -0.0013,0.0213 -4e-4,0.007 -8e-4,0.014 -0.0012,0.0209 -4e-4,0.0069 -8e-4,0.0137 -0.0012,0.0205 -4e-4,0.0067 -8e-4,0.0134 -0.0011,0.0201 l -0.0012,0.0198 c -3e-4,0.0065 -7e-4,0.013 -0.0011,0.0194 -3e-4,0.0064 -7e-4,0.0128 -10e-4,0.0191 -4e-4,0.0063 -7e-4,0.0125 -0.0011,0.0187 -3e-4,0.0062 -7e-4,0.0123 -0.001,0.0184 -3e-4,0.0061 -7e-4,0.0121 -10e-4,0.0181 -3e-4,0.006 -6e-4,0.0119 -0.001,0.0178 -3e-4,0.0059 -6e-4,0.0117 -9e-4,0.0175 -3e-4,0.0058 -6e-4,0.0115 -9e-4,0.0172 -3e-4,0.0057 -6e-4,0.0114 -9e-4,0.0169 -3e-4,0.0056 -6e-4,0.0112 -9e-4,0.0167 -3e-4,0.0055 -6e-4,0.0109 -8e-4,0.0163 -3e-4,0.0055 -6e-4,0.0108 -9e-4,0.0162 -2e-4,0.0053 -5e-4,0.0106 -8e-4,0.0158 -2e-4,0.0052 -5e-4,0.0104 -8e-4,0.0156 -2e-4,0.0051 -5e-4,0.0103 -7e-4,0.0153 -3e-4,0.0051 -6e-4,0.0101 -8e-4,0.0151 -3e-4,0.005 -5e-4,0.01 -7e-4,0.0149 -3e-4,0.0049 -5e-4,0.0098 -8e-4,0.0146 -2e-4,0.0049 -4e-4,0.0097 -7e-4,0.0145 -2e-4,0.0047 -4e-4,0.0095 -7e-4,0.0142 -2e-4,0.0047 -4e-4,0.0093 -6e-4,0.0139 -2e-4,0.0047 -5e-4,0.0093 -7e-4,0.0138 -2e-4,0.0046 -4e-4,0.0091 -6e-4,0.0136 -2e-4,0.0045 -4e-4,0.0089 -7e-4,0.0133 -2e-4,0.0045 -4e-4,0.0089 -6e-4,0.0132 -2e-4,0.0044 -4e-4,0.0087 -6e-4,0.013 -2e-4,0.0043 -4e-4,0.0086 -6e-4,0.0128 -2e-4,0.0042 -3e-4,0.0084 -5e-4,0.0126 -2e-4,0.0042 -4e-4,0.0083 -6e-4,0.0124 l -6e-4,0.0123 c -1e-4,0.004 -3e-4,0.0081 -5e-4,0.0121 -2e-4,0.004 -3e-4,0.0079 -5e-4,0.0119 -2e-4,0.0039 -4e-4,0.0078 -5e-4,0.0117 -2e-4,0.0039 -4e-4,0.0078 -5e-4,0.0116 -2e-4,0.0038 -4e-4,0.0077 -5e-4,0.0114 -2e-4,0.0038 -4e-4,0.0076 -5e-4,0.0113 -2e-4,0.0037 -4e-4,0.0075 -5e-4,0.0111 -2e-4,0.0037 -3e-4,0.0074 -5e-4,0.011 -1e-4,0.0036 -3e-4,0.0073 -4e-4,0.0108 -2e-4,0.0036 -3e-4,0.0072 -5e-4,0.0107 -1e-4,0.0036 -3e-4,0.0071 -4e-4,0.0106 -2e-4,0.0035 -3e-4,0.0069 -5e-4,0.0104 -10e-5,0.0034 -2e-4,0.0068 -4e-4,0.0102 -1e-4,0.0034 -3e-4,0.0068 -4e-4,0.0102 -1e-4,0.0033 -3e-4,0.0067 -4e-4,0.01 -1e-4,0.0033 -3e-4,0.0066 -4e-4,0.0099 -1e-4,0.0033 -3e-4,0.0065 -4e-4,0.0097 -1e-4,0.0033 -3e-4,0.0065 -4e-4,0.0097 -1e-4,0.0032 -2e-4,0.0063 -4e-4,0.0095 -1e-4,0.0031 -2e-4,0.0063 -3e-4,0.0094 -2e-4,0.0031 -3e-4,0.0062 -4e-4,0.0093 -10e-5,0.003 -2e-4,0.0061 -3e-4,0.0091 -2e-4,0.0031 -3e-4,0.0061 -4e-4,0.0091 -1e-4,0.003 -2e-4,0.006 -3e-4,0.0089 -2e-4,0.003 -3e-4,0.006 -4e-4,0.0089 l -3e-4,0.0087 -3e-4,0.0087 c -1e-4,0.0028 -3e-4,0.0057 -4e-4,0.0085 l -3e-4,0.0084 c -1e-4,0.0028 -2e-4,0.0056 -3e-4,0.0083 -10e-5,0.0028 -2e-4,0.0056 -3e-4,0.0083 l -3e-4,0.0081 -3e-4,0.0081 c -1e-4,0.0026 -2e-4,0.0053 -3e-4,0.0079 -10e-5,0.0027 -2e-4,0.0053 -3e-4,0.0079 0,0.0026 -1e-4,0.0052 -2e-4,0.0078 -10e-5,0.0025 -2e-4,0.0051 -3e-4,0.0077 -1e-4,0.0025 -2e-4,0.005 -3e-4,0.0076 -1e-4,0.0025 -2e-4,0.005 -2e-4,0.0075 -10e-5,0.0025 -2e-4,0.0049 -3e-4,0.0074 -1e-4,0.0025 -2e-4,0.0049 -3e-4,0.0074 0,0.0024 -1e-4,0.0048 -2e-4,0.0072 -1e-4,0.0025 -2e-4,0.0049 -3e-4,0.0072 0,0.0024 -1e-4,0.0048 -2e-4,0.0072 -10e-5,0.0023 -2e-4,0.0047 -2e-4,0.007 -1e-4,0.0023 -2e-4,0.0047 -3e-4,0.007 -1e-4,0.0023 -1e-4,0.0046 -2e-4,0.0069 -1e-4,0.0022 -2e-4,0.0045 -2e-4,0.0068 -10e-5,0.0022 -2e-4,0.0045 -3e-4,0.0067 0,0.0023 -1e-4,0.0045 -2e-4,0.0067 -1e-4,0.0022 -1e-4,0.0044 -2e-4,0.0066 -1e-4,0.0022 -2e-4,0.0044 -2e-4,0.0066 -1e-4,0.0021 -2e-4,0.0043 -2e-4,0.0064 -1e-4,0.0022 -2e-4,0.0043 -2e-4,0.0064 -10e-5,0.0022 -2e-4,0.0043 -3e-4,0.0064 0,0.0021 -1e-4,0.0042 -2e-4,0.0063 0,0.002 -1e-4,0.0041 -2e-4,0.0062 0,0.002 -0.03317,1.194725 -0.03327,1.196725"
       id="path4456"
       sodipodi:nodetypes="ccccccscscccccscccssccscccsccscsssssssscsccsscscccscssssssccscsssscscccccscscscscssccccssccssscsssscccssccccscsscccccsscssssccccccccccssscssssscsscccccccccccsssssccscscscssssscsscssscscscscssccssccccccc" />
    <path
       style="fill:none;stroke:#ff6600;stroke-width:0.7;stroke-linecap:round;stroke-linejoin:round;stroke-miterlimit:4;stroke-dasharray:none"
       d="m 91.8298,74.2462 c 10e-5,0.002 2e-4,0.0041 2e-4,0.0061 1e-4,0.0021 2e-4,0.0042 2e-4,0.0063 10e-5,0.002 2e-4,0.0041 2e-4,0.0062 1e-4,0.0021 2e-4,0.0042 3e-4,0.0064 0,0.0021 1e-4,0.0042 2e-4,0.0064 0,0.0021 1e-4,0.0043 2e-4,0.0065 0,0.0021 10e-5,0.0043 2e-4,0.0065 1e-4,0.0022 1e-4,0.0044 2e-4,0.0066 10e-5,0.0022 2e-4,0.0044 2e-4,0.0067 1e-4,0.0022 2e-4,0.0045 3e-4,0.0067 0,0.0023 1e-4,0.0046 2e-4,0.0068 1e-4,0.0023 1e-4,0.0046 2e-4,0.0069 10e-5,0.0024 2e-4,0.0047 3e-4,0.007 0,0.0023 1e-4,0.0047 2e-4,0.0071 1e-4,0.0023 -0.03617,-1.346375 -0.03617,-1.343975 L 91.8334,74.3527 c 6.5e-5,0.0024 2e-4,0.0048 2e-4,0.0072 10e-5,0.0025 2e-4,0.0049 3e-4,0.0074 1e-4,0.0025 2e-4,0.0049 3e-4,0.0074 0,0.0025 1e-4,0.005 2e-4,0.0076 1e-4,0.0025 2e-4,0.005 3e-4,0.0076 1e-4,0.0025 2e-4,0.0051 3e-4,0.0076 1e-4,0.0026 2e-4,0.0052 2e-4,0.0078 1e-4,0.0026 2e-4,0.0053 3e-4,0.0079 1e-4,0.0026 2e-4,0.0053 3e-4,0.0079 l 3e-4,0.0081 3e-4,0.0081 c 1e-4,0.0028 2e-4,0.0055 3e-4,0.0083 1e-4,0.0027 2e-4,0.0055 3e-4,0.0083 l 3e-4,0.0084 c 1e-4,0.0029 3e-4,0.0057 4e-4,0.0086 1e-4,0.0028 2e-4,0.0057 3e-4,0.0086 l 3e-4,0.0087 c 10e-5,0.003 2e-4,0.0059 4e-4,0.0089 1e-4,0.0029 2e-4,0.0059 3e-4,0.0089 1e-4,0.003 2e-4,0.006 4e-4,0.0091 1e-4,0.003 2e-4,0.0061 3e-4,0.0091 1e-4,0.0031 2e-4,0.0062 4e-4,0.0093 10e-5,0.0031 2e-4,0.0063 3e-4,0.0094 2e-4,0.0032 3e-4,0.0064 4e-4,0.0095 1e-4,0.0032 3e-4,0.0064 4e-4,0.0097 1e-4,0.0032 3e-4,0.0065 4e-4,0.0097 1e-4,0.0033 3e-4,0.0066 4e-4,0.0099 1e-4,0.0033 3e-4,0.0067 4e-4,0.01 1e-4,0.0034 3e-4,0.0068 4e-4,0.0102 2e-4,0.0034 3e-4,0.0068 4e-4,0.0103 2e-4,0.0034 3e-4,0.0069 5e-4,0.0104 1e-4,0.0035 3e-4,0.007 4e-4,0.0105 2e-4,0.0035 3e-4,0.0071 5e-4,0.0107 1e-4,0.0036 3e-4,0.0072 4e-4,0.0108 2e-4,0.0037 3e-4,0.0073 5e-4,0.011 1e-4,0.0037 3e-4,0.0074 5e-4,0.0111 1e-4,0.0037 3e-4,0.0075 5e-4,0.0113 10e-5,0.0038 3e-4,0.0076 5e-4,0.0114 1e-4,0.0039 3e-4,0.0077 5e-4,0.0116 1e-4,0.0039 3e-4,0.0078 5e-4,0.0118 2e-4,0.0039 3e-4,0.0079 5e-4,0.0119 2e-4,0.004 4e-4,0.008 5e-4,0.0121 2e-4,0.004 4e-4,0.0081 6e-4,0.0122 2e-4,0.0041 4e-4,0.0083 6e-4,0.0124 2e-4,0.0042 3e-4,0.0084 5e-4,0.0127 2e-4,0.0042 4e-4,0.0084 6e-4,0.0127 2e-4,0.0043 4e-4,0.0087 6e-4,0.013 l 6e-4,0.0132 c 3e-4,0.0044 5e-4,0.0089 7e-4,0.0134 l 6e-4,0.0135 c 2e-4,0.0046 5e-4,0.0092 7e-4,0.0138 2e-4,0.0046 4e-4,0.0093 6e-4,0.014 3e-4,0.0047 5e-4,0.0094 7e-4,0.0142 3e-4,0.0048 5e-4,0.0096 7e-4,0.0144 3e-4,0.0048 5e-4,0.0097 8e-4,0.0146 2e-4,0.005 4e-4,0.0099 7e-4,0.0149 2e-4,0.005 5e-4,0.01 8e-4,0.0151 2e-4,0.0051 5e-4,0.0102 7e-4,0.0154 3e-4,0.0051 6e-4,0.0103 8e-4,0.0156 3e-4,0.0052 6e-4,0.0105 8e-4,0.0158 3e-4,0.0053 6e-4,0.0107 9e-4,0.0161 2e-4,0.0054 5e-4,0.0109 8e-4,0.0164 3e-4,0.0055 6e-4,0.011 9e-4,0.0166 3e-4,0.0056 6e-4,0.0113 9e-4,0.0169 3e-4,0.0057 6e-4,0.0115 9e-4,0.0173 3e-4,0.0057 6e-4,0.0116 9e-4,0.0175 4e-4,0.0058 7e-4,0.0118 0.001,0.0177 3e-4,0.006 7e-4,0.0121 10e-4,0.0182 3e-4,0.006 7e-4,0.0122 0.001,0.0184 4e-4,0.0062 7e-4,0.0124 0.0011,0.0187 3e-4,0.0063 7e-4,0.0127 10e-4,0.0191 4e-4,0.0064 8e-4,0.0129 0.0011,0.0194 l 0.0012,0.0198 c 3e-4,0.0067 7e-4,0.0134 0.0011,0.0201 4e-4,0.0068 8e-4,0.0137 0.0012,0.0206 4e-4,0.0069 8e-4,0.0138 0.0013,0.0208 l 0.0012,0.0213 c 4e-4,0.0072 9e-4,0.0144 0.0013,0.0217 5e-4,0.0073 9e-4,0.0147 0.0014,0.0221 4e-4,0.0074 9e-4,0.015 0.0013,0.0225 5e-4,0.0076 0.001,0.0153 0.0014,0.023 5e-4,0.0077 0.001,0.0155 0.0015,0.0234 5e-4,0.0079 0.001,0.0159 0.0015,0.0239 5e-4,0.0081 0.001,0.0162 0.0016,0.0244 5e-4,0.0082 0.001,0.0165 0.0015,0.0248 6e-4,0.0084 0.0011,0.0169 0.0017,0.0254 5e-4,0.0086 0.0011,0.0172 0.0017,0.0259 6e-4,0.0087 0.0011,0.0175 0.0017,0.0264 l 0.0018,0.027 c 6e-4,0.0091 0.0013,0.0183 0.0019,0.0276 6e-4,0.0093 0.0013,0.0187 0.0019,0.0282 7e-4,0.0095 0.0013,0.0191 0.002,0.0288 7e-4,0.0097 0.0014,0.0195 0.0021,0.0294 7e-4,0.0099 0.0014,0.02 0.0021,0.0301 7e-4,0.0101 0.0014,0.0204 0.0022,0.0308 7e-4,0.0103 0.0015,0.0208 0.0023,0.0314 7e-4,0.0106 0.0015,0.0214 0.0023,0.0322 8e-4,0.0109 0.0016,0.0219 0.0024,0.033 9e-4,0.0111 0.0017,0.0223 0.0026,0.0337 8e-4,0.0114 0.0017,0.0229 0.0026,0.0345 9e-4,0.0117 0.0018,0.0235 0.0027,0.0354 9e-4,0.0119 0.0018,0.024 0.0028,0.0362 9e-4,0.0123 0.0019,0.0247 0.0029,0.0372 0.001,0.0125 0.002,0.0252 0.003,0.0381 0.001,0.0128 0.0021,0.0258 0.0032,0.039 10e-4,0.0132 0.0021,0.0265 0.0032,0.0401 0.0011,0.0135 0.0023,0.0272 0.0034,0.0411 0.0012,0.0139 0.0023,0.0279 0.0035,0.0422 0.0012,0.0142 0.0024,0.0287 0.0037,0.0433 0.0012,0.0146 0.0025,0.0295 0.0038,0.0445 0.0013,0.015 0.0026,0.0303 0.004,0.0457 0.0013,0.0155 0.0027,0.0312 0.0041,0.0471 0.0015,0.0158 0.0029,0.032 0.0044,0.0483 0.0014,0.0163 0.0029,0.0329 0.0045,0.0497 0.0015,0.0169 0.0031,0.0339 0.0047,0.0512 0.0016,0.0173 0.0032,0.0349 0.0049,0.0527 0.0017,0.0179 0.0034,0.036 0.0052,0.0543 0.0017,0.0184 0.0035,0.0371 0.0053,0.056 0.0019,0.0189 0.0038,0.0382 0.0057,0.0577 0.0019,0.0195 0.0039,0.0394 0.0059,0.0595 0.002,0.0202 0.0041,0.0406 0.0062,0.0614 0.0021,0.0208 0.0042,0.042 0.0065,0.0634 0.0022,0.0215 0.0045,0.0434 0.0068,0.0656 0.0023,0.0222 0.0047,0.0447 0.0071,0.0677 0.0025,0.0229 0.005,0.0463 0.0076,0.07 0.0026,0.0238 0.0052,0.0479 0.0079,0.0725 0.0027,0.0246 0.0055,0.0496 0.0084,0.075 0.0028,0.0255 0.0058,0.0514 0.0088,0.0778 0.003,0.0264 0.0061,0.0532 0.0093,0.0806 0.0032,0.0273 0.0065,0.0552 0.0098,0.0836 0.0034,0.0284 0.0069,0.0573 0.0104,0.0868 0.0036,0.0295 0.0073,0.0596 0.011,0.0902 0.0038,0.0307 0.0077,0.0619 0.0117,0.0938 0.004,0.0318 0.0081,0.0644 0.0124,0.0975 0.0043,0.0332 0.0086,0.0671 0.0132,0.1016 0.0045,0.0346 0.0091,0.0699 0.014,0.1059 0.0048,0.036 0.0097,0.0728 0.0149,0.1104 0.0051,0.0376 0.0104,0.0761 0.0159,0.1153 0.0055,0.0393 0.0111,0.0795 0.017,0.1205 0.0058,0.0411 0.0119,0.0831 0.0182,0.1261 0.0062,0.043 0.0127,0.0869 0.0195,0.132 0.0067,0.045 0.0136,0.0911 0.0209,0.1383 0.0072,0.0473 0.0147,0.0956 0.0224,0.1453 0.0078,0.0496 0.0159,0.1004 0.0243,0.1525 0.0083,0.0522 0.017,0.1057 0.0261,0.1606 0.009,0.0549 0.0184,0.1112 0.0282,0.1691 0.0098,0.0579 0.02,0.1174 0.0306,0.1785 0.0106,0.0611 0.0217,0.1239 0.0333,0.1885 0.0115,0.0646 0.0235,0.1311 0.0361,0.1995 0.0126,0.0685 0.0257,0.1389 0.0395,0.2115 0.0137,0.0726 0.0281,0.1474 0.0431,0.2246 0.0151,0.0771 0.0309,0.1567 0.0474,0.2389 0.0165,0.0822 0.0339,0.167 0.0521,0.2547 0.0182,0.0876 0.0374,0.1782 0.0575,0.272 0.0202,0.0938 0.0413,0.1908 0.0637,0.2913 0.0223,0.1005 0.0459,0.2046 0.0708,0.3127 0.0249,0.108 0.0511,0.22 0.0789,0.3365 0.0279,0.1164 0.0573,0.2373 0.0885,0.3631 0.0313,0.1259 0.0644,0.2567 0.0996,0.3932 0.0353,0.1365 0.0727,0.2786 0.1127,0.4271 0.04,0.1485 0.0825,0.3034 0.1281,0.4656 0.0456,0.1622 0.0943,0.3318 0.1466,0.5098 0.0523,0.1779 0.1082,0.3643 0.1687,0.5604 0.0604,0.1961 0.1252,0.402 0.1955,0.6193 0.0703,0.2173 0.1461,0.446 0.2286,0.6881 0.0825,0.2421 0.1717,0.4977 0.2694,0.7692 0.0976,0.2716 0.2038,0.5592 0.3206,0.8661 0.1169,0.3069 0.2445,0.6331 0.386,0.9829 0.1415,0.3498 0.2969,0.7232 0.4705,1.126 0.1737,0.4027 0.3657,0.8349 0.5822,1.3041 0.2165,0.4693 0.4577,0.9759 0.7328,1.5306 0.2751,0.5548 0.5842,1.1579 0.9417,1.8255 0.3575,0.6677 0.7633,1.3999 1.2409,2.222 0.4777,0.8221 1.0268,1.7338 1.6878,2.7771 0.661,1.0436 1.433,2.2176 2.392,3.5986 0.958,1.381 2.1,2.966 3.585,4.913 1.486,1.946 3.298,4.239 5.844,7.275"
       id="path4442"
       sodipodi:nodetypes="cccccccssccsscscscscssscsscssssssscscsccssssscccccccccccsscssssscsssccccccccccsssscsscccccsscsccccsscccsssscsssccsccsscsscscscsccccssccssscscsscsscccsscccscccccccsscsccssccscccssccssccsccccccccc" />
    <path
       style="fill:none;stroke:#000000;stroke-width:0.5;stroke-linecap:round;stroke-linejoin:round;stroke-miterlimit:4;stroke-dasharray:none;marker-end:url(#marker4476)"
       d="M 91.8104,119.062 V 26.987"
       id="path4440" />
    <path
       style="fill:none;stroke:#000000;stroke-width:0.5;stroke-linecap:round;stroke-linejoin:round;stroke-miterlimit:4;stroke-dasharray:none;marker-end:url(#marker4486)"
       d="m 45.7729,73.025 h 92.075"
       id="path4433" />
  </g>
</svg>
