<?xml version="1.0" encoding="UTF-8" standalone="no"?>
<svg
   xmlns:dc="http://purl.org/dc/elements/1.1/"
   xmlns:cc="http://creativecommons.org/ns#"
   xmlns:rdf="http://www.w3.org/1999/02/22-rdf-syntax-ns#"
   xmlns:svg="http://www.w3.org/2000/svg"
   xmlns="http://www.w3.org/2000/svg"
   xmlns:sodipodi="http://sodipodi.sourceforge.net/DTD/sodipodi-0.dtd"
   xmlns:inkscape="http://www.inkscape.org/namespaces/inkscape"
   sodipodi:docname="parable.svg"
   id="svg8"
   version="1.1"
   viewBox="0 0 210 297"
   height="297mm"
   width="210mm"
   inkscape:version="1.0.2 (e86c870879, 2021-01-15, custom)">
  <defs
     id="defs2">
    <marker
       style="overflow:visible;"
       id="marker1987"
       refX="0.0"
       refY="0.0"
       orient="auto"
       inkscape:stockid="Arrow1Mend"
       inkscape:isstock="true">
      <path
         transform="scale(0.4) rotate(180) translate(10,0)"
         style="fill-rule:evenodd;stroke:#000000;stroke-width:1pt;stroke-opacity:1;fill:#000000;fill-opacity:1"
         d="M 0.0,0.0 L 5.0,-5.0 L -12.5,0.0 L 5.0,5.0 L 0.0,0.0 z "
         id="path1985" />
    </marker>
    <marker
       style="overflow:visible;"
       id="marker1977"
       refX="0.0"
       refY="0.0"
       orient="auto"
       inkscape:stockid="Arrow1Mend"
       inkscape:isstock="true">
      <path
         transform="scale(0.4) rotate(180) translate(10,0)"
         style="fill-rule:evenodd;stroke:#000000;stroke-width:1pt;stroke-opacity:1;fill:#000000;fill-opacity:1"
         d="M 0.0,0.0 L 5.0,-5.0 L -12.5,0.0 L 5.0,5.0 L 0.0,0.0 z "
         id="path1975" />
    </marker>
    <marker
       style="overflow:visible;"
       id="marker1671"
       refX="0.0"
       refY="0.0"
       orient="auto"
       inkscape:stockid="Arrow1Mend"
       inkscape:isstock="true">
      <path
         transform="scale(0.4) rotate(180) translate(10,0)"
         style="fill-rule:evenodd;stroke:#060000;stroke-width:1pt;stroke-opacity:1;fill:#060000;fill-opacity:1"
         d="M 0.0,0.0 L 5.0,-5.0 L -12.5,0.0 L 5.0,5.0 L 0.0,0.0 z "
         id="path1669" />
    </marker>
    <marker
       style="overflow:visible;"
       id="marker1335"
       refX="0.0"
       refY="0.0"
       orient="auto"
       inkscape:stockid="Arrow1Mend"
       inkscape:isstock="true">
      <path
         transform="scale(0.4) rotate(180) translate(10,0)"
         style="fill-rule:evenodd;stroke:#060000;stroke-width:1pt;stroke-opacity:1;fill:#060000;fill-opacity:1"
         d="M 0.0,0.0 L 5.0,-5.0 L -12.5,0.0 L 5.0,5.0 L 0.0,0.0 z "
         id="path1333" />
    </marker>
  </defs>
  <sodipodi:namedview
     id="base"
     pagecolor="#ffffff"
     bordercolor="#666666"
     borderopacity="1.0"
     inkscape:pageopacity="0.0"
     inkscape:pageshadow="2"
     inkscape:zoom="1"
     inkscape:cx="262.63661"
     inkscape:cy="298.85955"
     inkscape:document-units="mm"
     inkscape:current-layer="layer1"
     inkscape:document-rotation="0"
     showgrid="false"
     inkscape:window-width="1920"
     inkscape:window-height="1051"
     inkscape:window-x="-9"
     inkscape:window-y="-9"
     inkscape:window-maximized="1" />
  <metadata
     id="metadata5">
    <rdf:RDF>
      <cc:Work
         rdf:about="">
        <dc:format>image/svg+xml</dc:format>
        <dc:type
           rdf:resource="http://purl.org/dc/dcmitype/StillImage" />
        <dc:title></dc:title>
      </cc:Work>
    </rdf:RDF>
  </metadata>
  <g
     inkscape:label="Layer 1"
     inkscape:groupmode="layer"
     id="layer1">
    <path
       style="fill:none;stroke:#ff6600;stroke-width:0.7;stroke-linecap:round;stroke-linejoin:round;stroke-miterlimit:4;stroke-dasharray:none"
       d="m 31.215533,25.502167 c 1.0301,1.9416 2.0603,3.814 3.0904,5.6171 1.0301,1.8031 2.0602,3.5366 3.0903,5.201 1.0301,1.6644 2.0602,3.2592 3.0903,4.7849 1.0301,1.5257 2.0603,2.9819 3.0904,4.3689 1.0301,1.387 2.0602,2.7045 3.0903,3.9528 1.0301,1.2483 2.0602,2.427 3.0903,3.5367 1.0301,1.1096 2.0602,2.1496 3.0904,3.1206 1.0301,0.9709 2.0602,1.8723 3.0903,2.7045 1.0301,0.8322 2.0602,1.5949 3.0903,2.2884 1.0301,0.6936 2.0602,1.3176 3.0904,1.8724 1.0301,0.5549 2.0602,1.0401 3.0903,1.4563 1.0301,0.4161 2.0602,0.7627 3.0903,1.0402 1.0301,0.2775 2.0602,0.4854 3.0903,0.6241 1.0302,0.1388 2.0603,0.208 3.0904,0.2081 1.0301,0 2.0602,-0.0695 3.0903,-0.2081 1.0301,-0.1386 2.0602,-0.3468 3.0903,-0.6241 1.0302,-0.2773 2.0603,-0.6242 3.09,-1.0402 1.03,-0.416 2.061,-0.9016 3.091,-1.4563 1.03,-0.5547 2.06,-1.179 3.09,-1.8724 1.03,-0.6934 2.06,-1.4563 3.09,-2.2884 1.03,-0.8321 2.061,-1.7337 3.091,-2.7045 1.03,-0.9708 2.06,-2.0112 3.09,-3.1206 1.029997,-1.1095 2.059997,-2.2886 3.089997,-3.5367 1.03,-1.2482 2.061,-2.5659 3.091,-3.9528 1.03,-1.3869 2.06,-2.8433 3.09,-4.3689 1.03,-1.5255 2.06,-3.1206 3.09,-4.7849 1.03,-1.6643 2.061,-3.3981 3.091,-5.201 1.03,-1.803 2.06,-3.6755 3.09,-5.6171"
       id="path1961" />
    <path
       style="fill:none;stroke:#000000;stroke-width:0.5;stroke-linecap:round;stroke-linejoin:round;stroke-miterlimit:4;stroke-dasharray:none;marker-end:url(#marker1987)"
       d="M 74.480233,112.18317 V 20.372767"
       id="path1959" />
    <path
       style="fill:none;stroke:#000000;stroke-width:0.5;stroke-linecap:round;stroke-linejoin:round;stroke-miterlimit:4;stroke-dasharray:none;marker-end:url(#marker1977)"
       d="M 28.575033,66.278167 H 120.38543"
       id="path1952" />
  </g>
</svg>
