<?xml version="1.0" encoding="UTF-8" standalone="no"?>
<svg
   xmlns:dc="http://purl.org/dc/elements/1.1/"
   xmlns:cc="http://creativecommons.org/ns#"
   xmlns:rdf="http://www.w3.org/1999/02/22-rdf-syntax-ns#"
   xmlns:svg="http://www.w3.org/2000/svg"
   xmlns="http://www.w3.org/2000/svg"
   xmlns:sodipodi="http://sodipodi.sourceforge.net/DTD/sodipodi-0.dtd"
   xmlns:inkscape="http://www.inkscape.org/namespaces/inkscape"
   inkscape:version="1.0.2 (e86c870879, 2021-01-15, custom)"
   width="210mm"
   height="297mm"
   viewBox="0 0 210 297"
   version="1.1"
   id="svg8"
   sodipodi:docname="quadrafoil.svg">
  <defs
     id="defs2">
    <marker
       style="overflow:visible;"
       id="marker1414"
       refX="0.0"
       refY="0.0"
       orient="auto"
       inkscape:stockid="Arrow1Mend"
       inkscape:isstock="true">
      <path
         transform="scale(0.4) rotate(180) translate(10,0)"
         style="fill-rule:evenodd;stroke:#000000;stroke-width:1pt;stroke-opacity:1;fill:#000000;fill-opacity:1"
         d="M 0.0,0.0 L 5.0,-5.0 L -12.5,0.0 L 5.0,5.0 L 0.0,0.0 z "
         id="path1412" />
    </marker>
    <marker
       style="overflow:visible;"
       id="marker1404"
       refX="0.0"
       refY="0.0"
       orient="auto"
       inkscape:stockid="Arrow1Mend"
       inkscape:isstock="true">
      <path
         transform="scale(0.4) rotate(180) translate(10,0)"
         style="fill-rule:evenodd;stroke:#000000;stroke-width:1pt;stroke-opacity:1;fill:#000000;fill-opacity:1"
         d="M 0.0,0.0 L 5.0,-5.0 L -12.5,0.0 L 5.0,5.0 L 0.0,0.0 z "
         id="path1402" />
    </marker>
    <marker
       style="overflow:visible;"
       id="marker5127"
       refX="0.0"
       refY="0.0"
       orient="auto"
       inkscape:stockid="Arrow1Mend"
       inkscape:isstock="true">
      <path
         transform="scale(0.4) rotate(180) translate(10,0)"
         style="fill-rule:evenodd;stroke:#000000;stroke-width:1pt;stroke-opacity:1;fill:#000000;fill-opacity:1"
         d="M 0.0,0.0 L 5.0,-5.0 L -12.5,0.0 L 5.0,5.0 L 0.0,0.0 z "
         id="path5125" />
    </marker>
    <marker
       style="overflow:visible;"
       id="marker4476"
       refX="0.0"
       refY="0.0"
       orient="auto"
       inkscape:stockid="Arrow1Mend"
       inkscape:isstock="true">
      <path
         transform="scale(0.4) rotate(180) translate(10,0)"
         style="fill-rule:evenodd;stroke:#000000;stroke-width:1pt;stroke-opacity:1;fill:#000000;fill-opacity:1"
         d="M 0.0,0.0 L 5.0,-5.0 L -12.5,0.0 L 5.0,5.0 L 0.0,0.0 z "
         id="path4474" />
    </marker>
    <marker
       style="overflow:visible;"
       id="marker2391"
       refX="0.0"
       refY="0.0"
       orient="auto"
       inkscape:stockid="Arrow1Mend"
       inkscape:isstock="true">
      <path
         transform="scale(0.4) rotate(180) translate(10,0)"
         style="fill-rule:evenodd;stroke:#000000;stroke-width:1pt;stroke-opacity:1;fill:#000000;fill-opacity:1"
         d="M 0.0,0.0 L 5.0,-5.0 L -12.5,0.0 L 5.0,5.0 L 0.0,0.0 z "
         id="path2389" />
    </marker>
    <marker
       style="overflow:visible;"
       id="marker1987"
       refX="0.0"
       refY="0.0"
       orient="auto"
       inkscape:stockid="Arrow1Mend"
       inkscape:isstock="true">
      <path
         transform="scale(0.4) rotate(180) translate(10,0)"
         style="fill-rule:evenodd;stroke:#000000;stroke-width:1pt;stroke-opacity:1;fill:#000000;fill-opacity:1"
         d="M 0.0,0.0 L 5.0,-5.0 L -12.5,0.0 L 5.0,5.0 L 0.0,0.0 z "
         id="path1985" />
    </marker>
    <marker
       style="overflow:visible;"
       id="marker1977"
       refX="0.0"
       refY="0.0"
       orient="auto"
       inkscape:stockid="Arrow1Mend"
       inkscape:isstock="true">
      <path
         transform="scale(0.4) rotate(180) translate(10,0)"
         style="fill-rule:evenodd;stroke:#000000;stroke-width:1pt;stroke-opacity:1;fill:#000000;fill-opacity:1"
         d="M 0.0,0.0 L 5.0,-5.0 L -12.5,0.0 L 5.0,5.0 L 0.0,0.0 z "
         id="path1975" />
    </marker>
    <marker
       style="overflow:visible;"
       id="marker1671"
       refX="0.0"
       refY="0.0"
       orient="auto"
       inkscape:stockid="Arrow1Mend"
       inkscape:isstock="true">
      <path
         transform="scale(0.4) rotate(180) translate(10,0)"
         style="fill-rule:evenodd;stroke:#060000;stroke-width:1pt;stroke-opacity:1;fill:#060000;fill-opacity:1"
         d="M 0.0,0.0 L 5.0,-5.0 L -12.5,0.0 L 5.0,5.0 L 0.0,0.0 z "
         id="path1669" />
    </marker>
  </defs>
  <sodipodi:namedview
     id="base"
     pagecolor="#ffffff"
     bordercolor="#666666"
     borderopacity="1.0"
     inkscape:pageopacity="0.0"
     inkscape:pageshadow="2"
     inkscape:zoom="1.4142136"
     inkscape:cx="246.21645"
     inkscape:cy="295.34842"
     inkscape:document-units="mm"
     inkscape:current-layer="layer1"
     inkscape:document-rotation="0"
     showgrid="false"
     inkscape:window-width="1920"
     inkscape:window-height="1051"
     inkscape:window-x="-9"
     inkscape:window-y="-9"
     inkscape:window-maximized="1" />
  <metadata
     id="metadata5">
    <rdf:RDF>
      <cc:Work
         rdf:about="">
        <dc:format>image/svg+xml</dc:format>
        <dc:type
           rdf:resource="http://purl.org/dc/dcmitype/StillImage" />
        <dc:title></dc:title>
      </cc:Work>
    </rdf:RDF>
  </metadata>
  <g
     inkscape:label="Layer 1"
     inkscape:groupmode="layer"
     id="layer1">
    <path
       style="fill:none;stroke:#ff6600;stroke-width:0.7;stroke-linecap:square;stroke-miterlimit:4;stroke-dasharray:none"
       d="m 62.616769,92.478887 c 0.882399,0.881832 2.049832,1.477499 3.391638,1.713956 1.341806,0.236456 2.857136,0.111581 4.413336,-0.396546 1.556201,-0.508127 3.152141,-1.401768 4.65446,-2.650095 1.502248,-1.248255 2.909108,-2.852822 4.10631,-4.733231 1.197203,-1.88055 2.182627,-4.037792 2.878066,-6.353637 0.695299,-2.315846 1.098491,-4.789871 1.178747,-7.282634 0.08026,-2.492623 -0.16426,-5.00271 -0.712127,-7.388913 C 81.979262,63.001655 81.126703,60.741389 80.03981,58.730165 78.952916,56.718941 77.631192,54.959094 76.183461,53.538092 74.73559,52.11709 73.162206,51.03755 71.594338,50.338999 70.026471,49.64059 68.465391,49.325432 67.045167,49.380375 c -1.420224,0.05494 -2.697612,0.481681 -3.715281,1.216365 -1.017597,0.734754 -1.77307,1.778444 -2.18404,3.026487 -0.410971,1.248044 -0.474893,2.700583 -0.156554,4.228075 0.318269,1.527563 1.020921,3.12923 2.090491,4.669874 1.069428,1.540645 2.50733,3.01871 4.245186,4.313352 1.737856,1.294642 3.776516,2.403739 6.005882,3.238832 2.229296,0.835163 4.649439,1.394061 7.124172,1.633346 2.474803,0.239355 5.003205,0.157119 7.442369,-0.238225 2.439236,-0.395272 4.787467,-1.105278 6.915363,-2.070974 2.127826,-0.965766 4.032842,-2.188001 5.617465,-3.566152 1.58498,-1.378646 2.84597,-2.912148 3.73247,-4.475066 0.88579,-1.562211 1.39434,-3.152353 1.52452,-4.634378 0.13096,-1.482662 -0.11851,-2.855015 -0.69565,-3.995012 -0.57714,-1.139998 -1.48337,-2.044811 -2.62273,-2.62273 -1.13943,-0.577989 -2.512777,-0.825618 -3.995014,-0.695651 -1.48153,0.129259 -3.071743,0.639153 -4.634378,1.524522 -1.562635,0.885368 -3.096633,2.148685 -4.475067,3.732463 -1.378504,1.58399 -2.59989,3.490138 -3.566151,5.617468 -0.966262,2.127472 -1.674995,4.476269 -2.070975,6.915363 -0.395909,2.439024 -0.476943,4.967496 -0.238224,7.44237 0.238719,2.474873 0.798748,4.894451 1.633346,7.124171 0.834527,2.229791 1.944614,4.26746 3.238832,6.005882 1.294359,1.738422 2.772848,3.175051 4.313351,4.245187 1.540503,1.070277 3.142171,1.771514 4.669875,2.09049 1.527633,0.319047 2.979605,0.25371 4.227865,-0.156765 1.24868,-0.410052 2.29116,-1.166868 3.0267,-2.183829 0.73553,-1.016961 1.16092,-2.295127 1.21636,-3.71528 0.0557,-1.420012 -0.26092,-2.981304 -0.95869,-4.549243 -0.69771,-1.567867 -1.77866,-3.140968 -3.19903,-4.589052 -1.42029,-1.448013 -3.181269,-2.76903 -5.192068,-3.856348 -2.010729,-1.087389 -4.271703,-1.938816 -6.657623,-2.48739 C 87.32202,72.020095 84.81172,71.77678 82.319027,71.8564 c -2.492834,0.07962 -4.966506,0.484015 -7.282634,1.178747 -2.316128,0.694874 -4.472521,1.681288 -6.353637,2.878066 -1.880975,1.196778 -3.484198,2.604274 -4.733232,4.106311 -1.249033,1.502177 -2.14119,3.098188 -2.650095,4.654459 -0.508904,1.556272 -0.632224,3.071177 -0.396545,4.413337 0.235749,1.342088 0.832123,2.509239 1.713885,3.391567"
       id="path1388" />
    <path
       style="fill:none;stroke:#000000;stroke-width:0.5;stroke-linecap:square;stroke-miterlimit:4;stroke-dasharray:none;marker-end:url(#marker1404)"
       d="M 83.2545,115.621 V 28.0635"
       id="path1386" />
    <path
       style="fill:none;stroke:#000000;stroke-width:0.5;stroke-linecap:square;stroke-miterlimit:4;stroke-dasharray:none;marker-end:url(#marker1414)"
       d="m 39.4757,71.842 h 87.5575"
       id="path1379" />
  </g>
</svg>
