<?xml version="1.0" encoding="UTF-8" standalone="no"?>
<svg
   xmlns:dc="http://purl.org/dc/elements/1.1/"
   xmlns:cc="http://creativecommons.org/ns#"
   xmlns:rdf="http://www.w3.org/1999/02/22-rdf-syntax-ns#"
   xmlns:svg="http://www.w3.org/2000/svg"
   xmlns="http://www.w3.org/2000/svg"
   xmlns:sodipodi="http://sodipodi.sourceforge.net/DTD/sodipodi-0.dtd"
   xmlns:inkscape="http://www.inkscape.org/namespaces/inkscape"
   inkscape:version="1.0.2 (e86c870879, 2021-01-15, custom)"
   width="210mm"
   height="297mm"
   viewBox="0 0 210 297"
   version="1.1"
   id="svg8"
   sodipodi:docname="singular_cubic.svg">
  <defs
     id="defs2">
    <marker
       style="overflow:visible;"
       id="marker5137"
       refX="0.0"
       refY="0.0"
       orient="auto"
       inkscape:stockid="Arrow1Mend"
       inkscape:isstock="true">
      <path
         transform="scale(0.4) rotate(180) translate(10,0)"
         style="fill-rule:evenodd;stroke:#000000;stroke-width:1pt;stroke-opacity:1;fill:#000000;fill-opacity:1"
         d="M 0.0,0.0 L 5.0,-5.0 L -12.5,0.0 L 5.0,5.0 L 0.0,0.0 z "
         id="path5135" />
    </marker>
    <marker
       style="overflow:visible;"
       id="marker5127"
       refX="0.0"
       refY="0.0"
       orient="auto"
       inkscape:stockid="Arrow1Mend"
       inkscape:isstock="true">
      <path
         transform="scale(0.4) rotate(180) translate(10,0)"
         style="fill-rule:evenodd;stroke:#000000;stroke-width:1pt;stroke-opacity:1;fill:#000000;fill-opacity:1"
         d="M 0.0,0.0 L 5.0,-5.0 L -12.5,0.0 L 5.0,5.0 L 0.0,0.0 z "
         id="path5125" />
    </marker>
    <marker
       style="overflow:visible;"
       id="marker4476"
       refX="0.0"
       refY="0.0"
       orient="auto"
       inkscape:stockid="Arrow1Mend"
       inkscape:isstock="true">
      <path
         transform="scale(0.4) rotate(180) translate(10,0)"
         style="fill-rule:evenodd;stroke:#000000;stroke-width:1pt;stroke-opacity:1;fill:#000000;fill-opacity:1"
         d="M 0.0,0.0 L 5.0,-5.0 L -12.5,0.0 L 5.0,5.0 L 0.0,0.0 z "
         id="path4474" />
    </marker>
    <marker
       style="overflow:visible;"
       id="marker2391"
       refX="0.0"
       refY="0.0"
       orient="auto"
       inkscape:stockid="Arrow1Mend"
       inkscape:isstock="true">
      <path
         transform="scale(0.4) rotate(180) translate(10,0)"
         style="fill-rule:evenodd;stroke:#000000;stroke-width:1pt;stroke-opacity:1;fill:#000000;fill-opacity:1"
         d="M 0.0,0.0 L 5.0,-5.0 L -12.5,0.0 L 5.0,5.0 L 0.0,0.0 z "
         id="path2389" />
    </marker>
    <marker
       style="overflow:visible;"
       id="marker1987"
       refX="0.0"
       refY="0.0"
       orient="auto"
       inkscape:stockid="Arrow1Mend"
       inkscape:isstock="true">
      <path
         transform="scale(0.4) rotate(180) translate(10,0)"
         style="fill-rule:evenodd;stroke:#000000;stroke-width:1pt;stroke-opacity:1;fill:#000000;fill-opacity:1"
         d="M 0.0,0.0 L 5.0,-5.0 L -12.5,0.0 L 5.0,5.0 L 0.0,0.0 z "
         id="path1985" />
    </marker>
    <marker
       style="overflow:visible;"
       id="marker1977"
       refX="0.0"
       refY="0.0"
       orient="auto"
       inkscape:stockid="Arrow1Mend"
       inkscape:isstock="true">
      <path
         transform="scale(0.4) rotate(180) translate(10,0)"
         style="fill-rule:evenodd;stroke:#000000;stroke-width:1pt;stroke-opacity:1;fill:#000000;fill-opacity:1"
         d="M 0.0,0.0 L 5.0,-5.0 L -12.5,0.0 L 5.0,5.0 L 0.0,0.0 z "
         id="path1975" />
    </marker>
    <marker
       style="overflow:visible;"
       id="marker1671"
       refX="0.0"
       refY="0.0"
       orient="auto"
       inkscape:stockid="Arrow1Mend"
       inkscape:isstock="true">
      <path
         transform="scale(0.4) rotate(180) translate(10,0)"
         style="fill-rule:evenodd;stroke:#060000;stroke-width:1pt;stroke-opacity:1;fill:#060000;fill-opacity:1"
         d="M 0.0,0.0 L 5.0,-5.0 L -12.5,0.0 L 5.0,5.0 L 0.0,0.0 z "
         id="path1669" />
    </marker>
  </defs>
  <sodipodi:namedview
     id="base"
     pagecolor="#ffffff"
     bordercolor="#666666"
     borderopacity="1.0"
     inkscape:pageopacity="0.0"
     inkscape:pageshadow="2"
     inkscape:zoom="1.4142136"
     inkscape:cx="177.44302"
     inkscape:cy="275.99491"
     inkscape:document-units="mm"
     inkscape:current-layer="layer1"
     inkscape:document-rotation="0"
     showgrid="false"
     inkscape:window-width="1920"
     inkscape:window-height="1051"
     inkscape:window-x="-9"
     inkscape:window-y="-9"
     inkscape:window-maximized="1"
     showguides="true"
     inkscape:guide-bbox="true" />
  <metadata
     id="metadata5">
    <rdf:RDF>
      <cc:Work
         rdf:about="">
        <dc:format>image/svg+xml</dc:format>
        <dc:type
           rdf:resource="http://purl.org/dc/dcmitype/StillImage" />
        <dc:title></dc:title>
      </cc:Work>
    </rdf:RDF>
  </metadata>
  <g
     inkscape:label="Layer 1"
     inkscape:groupmode="layer"
     id="layer1">
    <path
       style="fill:none;stroke:#ff6600;stroke-width:0.7;stroke-linecap:round;stroke-linejoin:round;stroke-miterlimit:4;stroke-dasharray:none"
       d="m 117.302,122.857 c -0.297,-0.553 -0.594,-1.102 -0.889,-1.647 -0.295,-0.545 -0.589,-1.086 -0.883,-1.622 -0.293,-0.537 -0.585,-1.069 -0.877,-1.597 -0.291,-0.528 -0.582,-1.052 -0.871,-1.572 -0.29,-0.52 -0.578,-1.036 -0.866,-1.548 -0.288,-0.511 -0.574,-1.019 -0.86,-1.523 -0.286,-0.503 -0.57,-1.003 -0.854,-1.498 -0.284,-0.496 -0.567,-0.987 -0.848,-1.475 -0.282,-0.487 -0.563,-0.971 -0.843,-1.45 -0.28,-0.48 -0.559,-0.955 -0.837,-1.427 -0.278,-0.471 -0.555,-0.939 -0.831,-1.402 -0.276,-0.464 -0.551,-0.924 -0.826,-1.38 -0.274,-0.456 -0.547,-0.907 -0.819,-1.356 -0.273,-0.448 -0.544,-0.892 -0.814,-1.332 -0.271,-0.441 -0.54,-0.877 -0.808,-1.31 -0.269,-0.433 -0.536,-0.8616 -0.803,-1.2867 -0.266,-0.4251 -0.532,-0.8465 -0.796,-1.264 -0.265,-0.4176 -0.529,-0.8314 -0.791,-1.2415 -0.263,-0.4101 -0.525,-0.8165 -0.785,-1.2191 -0.261,-0.4027 -0.521,-0.8016 -0.78,-1.1969 -0.259,-0.3953 -0.517,-0.7869 -0.7734,-1.1748 -0.257,-0.388 -0.5129,-0.7723 -0.7679,-1.1529 -0.255,-0.3807 -0.5091,-0.7577 -0.7622,-1.1312 -0.253,-0.3735 -0.5052,-0.7433 -0.7563,-1.1096 C 97.31,89.575 97.0598,89.2123 96.8105,88.8531 96.5613,88.494 96.313,88.1383 96.0657,87.7862 95.8183,87.4341 95.5719,87.0855 95.3265,86.7404 95.0811,86.3952 94.8367,86.0536 94.5932,85.7154 94.3497,85.3773 94.1071,85.0426 93.8655,84.7113 93.6239,84.38 93.3833,84.0521 93.1437,83.7277 92.904,83.4033 92.6653,83.0822 92.4275,82.7646 c -0.2377,-0.3177 -0.4745,-0.632 -0.7103,-0.9429 -0.2359,-0.3109 -0.4707,-0.6185 -0.7046,-0.9228 -0.234,-0.3042 -0.4669,-0.6052 -0.6989,-0.9028 -0.232,-0.2976 -0.463,-0.592 -0.6931,-0.8831 -0.2301,-0.291 -0.4592,-0.5788 -0.6874,-0.8634 -0.2281,-0.2846 -0.4553,-0.5659 -0.6816,-0.844 -0.2262,-0.2781 -0.4515,-0.553 -0.6758,-0.8247 -0.2244,-0.2717 -0.4477,-0.5402 -0.6701,-0.8055 -0.2224,-0.2654 -0.4439,-0.5276 -0.6644,-0.7867 -0.2205,-0.259 -0.44,-0.5149 -0.6586,-0.7678 C 85.3641,73.9681 85.1465,73.7184 84.9299,73.4717 84.7132,73.2251 84.4975,72.9815 84.2828,72.741 84.068,72.5005 83.8543,72.2631 83.6414,72.0286 83.4286,71.7942 83.2167,71.5628 83.0058,71.3344 82.7949,71.1059 82.585,70.8805 82.376,70.6581 82.167,70.4356 81.959,70.2161 81.7519,69.9996 81.5448,69.7831 81.3387,69.5695 81.1336,69.3588 80.9284,69.1481 80.7242,68.9403 80.521,68.7355 80.3178,68.5306 80.1155,68.3286 79.9142,68.1295 79.7128,67.9303 79.5125,67.7341 79.3131,67.5406 79.1137,67.3472 78.9152,67.1566 78.7178,66.9688 78.5203,66.781 78.3238,66.596 78.1282,66.4138 77.9326,66.2316 77.738,66.0521 77.5444,65.8754 77.3507,65.6988 77.158,65.5248 76.9663,65.3536 76.7746,65.1824 76.5838,65.0139 76.394,64.8481 c -0.1898,-0.1658 -0.3787,-0.3288 -0.5666,-0.4893 -0.1879,-0.1604 -0.3748,-0.3181 -0.5608,-0.4732 -0.186,-0.1552 -0.371,-0.3076 -0.5551,-0.4575 -0.184,-0.1498 -0.3671,-0.297 -0.5493,-0.4417 -0.1821,-0.1446 -0.3633,-0.2867 -0.5435,-0.4262 -0.1803,-0.1395 -0.3595,-0.2764 -0.5379,-0.4108 -0.1783,-0.1345 -0.3556,-0.2663 -0.532,-0.3957 -0.1764,-0.1294 -0.3518,-0.2562 -0.5263,-0.3806 -0.1745,-0.1244 -0.348,-0.2463 -0.5206,-0.3657 -0.1725,-0.1195 -0.3441,-0.2365 -0.5148,-0.351 -0.1706,-0.1146 -0.3403,-0.2268 -0.509,-0.3365 -0.1687,-0.1098 -0.3365,-0.2171 -0.5033,-0.3221 -0.1668,-0.105 -0.3327,-0.2076 -0.4976,-0.3079 -0.1648,-0.1002 -0.3288,-0.1982 -0.4917,-0.2938 -0.163,-0.0956 -0.325,-0.1889 -0.4861,-0.2799 -0.161,-0.091 -0.3211,-0.1797 -0.4803,-0.2662 -0.1591,-0.0865 -0.3173,-0.1706 -0.4745,-0.2526 -0.1572,-0.082 -0.3135,-0.1617 -0.4688,-0.2392 -0.1553,-0.0776 -0.3096,-0.1529 -0.463,-0.226 -0.1534,-0.0732 -0.3058,-0.1441 -0.4573,-0.2129 -0.1515,-0.0688 -0.302,-0.1355 -0.4515,-0.2 -0.1496,-0.0645 -0.2982,-0.1269 -0.4458,-0.1873 -0.1476,-0.0603 -0.2943,-0.1185 -0.44,-0.1746 -0.1458,-0.0562 -0.2905,-0.1102 -0.4343,-0.1622 -0.1438,-0.0521 -0.2866,-0.1021 -0.4285,-0.15 -0.1419,-0.048 -0.2828,-0.0939 -0.4228,-0.1379 -0.14,-0.044 -0.279,-0.0859 -0.417,-0.1259 -0.1381,-0.0401 -0.2752,-0.0781 -0.4113,-0.1142 -0.1361,-0.0361 -0.2713,-0.0703 -0.4055,-0.1026 -0.1342,-0.0323 -0.2675,-0.0626 -0.3998,-0.0911 -0.1323,-0.0285 -0.2636,-0.0551 -0.394,-0.0799 -0.1303,-0.0248 -0.2598,-0.0477 -0.3882,-0.0687 -0.1285,-0.0211 -0.256,-0.0404 -0.3825,-0.0578 -0.1266,-0.0175 -0.2522,-0.0331 -0.3768,-0.047 -0.1246,-0.0139 -0.2483,-0.026 -0.371,-0.0364 -0.1227,-0.0104 -0.2444,-0.019 -0.3652,-0.0259 -0.1208,-0.0069 -0.2407,-0.0121 -0.3595,-0.0156 -0.1189,-0.0036 -0.2368,-0.0054 -0.3538,-0.0055 -0.1169,-2e-4 -0.2329,0.0013 -0.348,0.0045 -0.115,0.0031 -0.2291,0.0079 -0.3422,0.0142 -0.1131,0.0064 -0.2253,0.0144 -0.3365,0.024 -0.1112,0.0095 -0.2214,0.0207 -0.3307,0.0334 -0.1093,0.0127 -0.2176,0.0269 -0.325,0.0427 -0.1074,0.0158 -0.2138,0.0331 -0.3193,0.0519 -0.1054,0.0188 -0.2099,0.0391 -0.3134,0.0609 -0.1036,0.0218 -0.2061,0.045 -0.3078,0.0697 -0.1016,0.0247 -0.2022,0.0508 -0.3019,0.0784 -0.0997,0.0275 -0.1985,0.0565 -0.2963,0.0868 -0.0978,0.0304 -0.1946,0.0621 -0.2904,0.0952 -0.0959,0.0331 -0.1908,0.0676 -0.2848,0.1034 -0.0939,0.0358 -0.1869,0.0729 -0.2789,0.1114 -0.0921,0.0384 -0.1831,0.0782 -0.2733,0.1192 -0.0901,0.041 -0.1792,0.0833 -0.2674,0.1269 -0.0882,0.0436 -0.1755,0.0884 -0.2617,0.1344 -0.0863,0.0461 -0.1716,0.0933 -0.256,0.1418 -0.0844,0.0485 -0.1678,0.0981 -0.2502,0.149 -0.0824,0.0508 -0.1639,0.1028 -0.2445,0.156 -0.0805,0.0531 -0.1601,0.1074 -0.2387,0.1629 -0.0786,0.0554 -0.1562,0.1119 -0.2329,0.1695 -0.0767,0.0576 -0.1524,0.1164 -0.2272,0.1761 -0.0748,0.0598 -0.1486,0.1206 -0.2215,0.1825 -0.0728,0.0619 -0.1447,0.1248 -0.2157,0.1887 -0.0709,0.0639 -0.1409,0.1288 -0.2099,0.1947 -0.069,0.0659 -0.1371,0.1328 -0.2042,0.2007 -0.0671,0.0678 -0.1333,0.1366 -0.1985,0.2063 -0.0651,0.0697 -0.1294,0.1404 -0.1926,0.2119 -0.0633,0.0716 -0.1256,0.144 -0.187,0.2173 -0.0613,0.0733 -0.1217,0.1475 -0.1812,0.2225 -0.0594,0.0751 -0.1179,0.1509 -0.1754,0.2276 -0.0575,0.0767 -0.1141,0.1542 -0.1697,0.2325 -0.0556,0.0783 -0.1102,0.1574 -0.1639,0.2373 -0.0537,0.0798 -0.1064,0.1604 -0.1582,0.2418 -0.0518,0.0813 -0.1026,0.1634 -0.1524,0.2462 -0.0499,0.0828 -0.0988,0.1663 -0.1467,0.2505 -0.0479,0.0842 -0.0949,0.169 -0.1409,0.2545 -0.046,0.0856 -0.0911,0.1717 -0.1352,0.2585 -0.0441,0.0868 -0.0872,0.1742 -0.1294,0.2623 -0.0422,0.088 -0.0834,0.1766 -0.1237,0.2658 -0.0402,0.0892 -0.0795,0.179 -0.1179,0.2693 -0.0383,0.0903 -0.0757,0.1812 -0.1122,0.2725 -0.0364,0.0914 -0.0719,0.1833 -0.1064,0.2757 -0.0345,0.0924 -0.068,0.1852 -0.1006,0.2786 -0.0326,0.0933 -0.0643,0.1871 -0.0949,0.2813 -0.0307,0.0943 -0.0604,0.1889 -0.0892,0.284 -0.0288,0.0951 -0.0565,0.1906 -0.0834,0.2865 -0.0268,0.0958 -0.0527,0.1921 -0.0776,0.2887 -0.025,0.0966 -0.0489,0.1935 -0.0719,0.2908 -0.0231,0.0973 -0.0451,0.1949 -0.0662,0.2928 -0.0211,0.0979 -0.0412,0.1962 -0.0604,0.2946 -0.0192,0.0985 -0.0374,0.1973 -0.0546,0.2963 -0.0173,0.099 -0.0336,0.1982 -0.0489,0.2977 -0.0154,0.0995 -0.0297,0.1991 -0.0432,0.299 -0.0134,0.0999 -0.0258,0.2 -0.0373,0.3002 -0.0116,0.1002 -0.0221,0.2006 -0.0317,0.3011 -0.0096,0.1006 -0.0182,0.2012 -0.0259,0.302 -0.0076,0.1008 -0.0143,0.2016 -0.0201,0.3026 -0.0058,0.101 -0.0105,0.202 -0.0144,0.3031 -0.0038,0.1011 -0.0067,0.2023 -0.0086,0.3035 -0.0019,0.1011 -0.0029,0.2023 -0.0029,0.3036 0,0.1012 0.001,0.2024 0.0029,0.3035 0.0019,0.1012 0.0048,0.2024 0.0086,0.3035 0.0039,0.1011 0.0086,0.2021 0.0144,0.3031 0.0058,0.101 0.0125,0.2018 0.0201,0.3026 0.0077,0.1008 0.0163,0.2014 0.0259,0.302 0.0096,0.1005 0.0201,0.2009 0.0317,0.3011 0.0115,0.1002 0.0239,0.2003 0.0373,0.3002 0.0135,0.0999 0.0278,0.1995 0.0432,0.299 0.0153,0.0995 0.0316,0.1987 0.0489,0.2977 0.0172,0.099 0.0354,0.1978 0.0546,0.2963 0.0192,0.0984 0.0393,0.1967 0.0604,0.2946 0.0211,0.0979 0.0431,0.1955 0.0662,0.2928 0.023,0.0973 0.0469,0.1942 0.0719,0.2908 0.0249,0.0966 0.0508,0.1929 0.0776,0.2887 0.0268,0.0959 0.0547,0.1914 0.0834,0.2865 0.0288,0.0951 0.0585,0.1897 0.0892,0.284 0.0306,0.0942 0.0623,0.188 0.0949,0.2813 0.0326,0.0934 0.0661,0.1862 0.1006,0.2786 0.0345,0.0924 0.07,0.1843 0.1064,0.2757 0.0365,0.0913 0.0739,0.1822 0.1122,0.2725 0.0384,0.0903 0.0777,0.1801 0.1179,0.2693 0.0403,0.0892 0.0815,0.1778 0.1237,0.2658 0.0422,0.0881 0.0853,0.1755 0.1294,0.2623 0.0441,0.0868 0.0892,0.1729 0.1352,0.2585 0.046,0.0855 0.093,0.1703 0.1409,0.2545 0.0479,0.0842 0.0968,0.1677 0.1467,0.2505 0.0498,0.0828 0.1006,0.1649 0.1524,0.2462 0.0518,0.0814 0.1045,0.162 0.1582,0.2418 0.0537,0.0799 0.1083,0.159 0.1639,0.2373 0.0556,0.0783 0.1122,0.1558 0.1697,0.2325 0.0575,0.0767 0.116,0.1525 0.1754,0.2276 0.0595,0.075 0.1199,0.1492 0.1812,0.2225 0.0614,0.0733 0.1237,0.1457 0.187,0.2173 0.0632,0.0715 0.1275,0.1422 0.1926,0.2119 0.0652,0.0697 0.1314,0.1385 0.1985,0.2063 0.0671,0.0679 0.1352,0.1348 0.2042,0.2007 0.069,0.0659 0.139,0.1308 0.2099,0.1947 0.071,0.0639 0.1429,0.1268 0.2157,0.1887 0.0729,0.0619 0.1467,0.1227 0.2215,0.1825 0.0748,0.0597 0.1505,0.1185 0.2272,0.1761 0.0767,0.0576 0.1543,0.1141 0.2329,0.1696 0.0786,0.0554 0.1582,0.1097 0.2387,0.1628 0.0806,0.0532 0.1621,0.1052 0.2445,0.156 0.0824,0.0509 0.1658,0.1005 0.2502,0.149 0.0844,0.0485 0.1697,0.0957 0.256,0.1418 0.0862,0.046 0.1735,0.0908 0.2617,0.1344 0.0882,0.0436 0.1773,0.0859 0.2674,0.1269 0.0902,0.041 0.1812,0.0808 0.2733,0.1192 0.092,0.0385 0.185,0.0756 0.2789,0.1114 0.094,0.0358 0.1889,0.0703 0.2848,0.1034 0.0958,0.0331 0.1927,0.0648 0.2904,0.0952 0.0978,0.0303 0.1966,0.0593 0.2963,0.0869 0.0997,0.0275 0.2003,0.0536 0.3019,0.0783 0.1017,0.0247 0.2042,0.0479 0.3078,0.0697 0.1035,0.0218 0.208,0.0421 0.3134,0.0609 0.1055,0.0188 0.2119,0.0361 0.3193,0.0519 0.1073,0.0158 0.2157,0.03 0.325,0.0427 0.1093,0.0127 0.2195,0.0239 0.3307,0.0334 0.1112,0.0096 0.2234,0.0176 0.3365,0.024 0.1131,0.0063 0.2272,0.0111 0.3422,0.0142 0.1151,0.0032 0.2311,0.0047 0.348,0.0045 0.117,-1e-4 0.2349,-0.0019 0.3538,-0.0055 0.1188,-0.0035 0.2387,-0.0087 0.3595,-0.0156 0.1208,-0.0069 0.2425,-0.0155 0.3652,-0.0259 0.1227,-0.0104 0.2464,-0.0225 0.371,-0.0364 0.1246,-0.0139 0.2502,-0.0295 0.3768,-0.047 0.1265,-0.0174 0.254,-0.0367 0.3825,-0.0578 0.1284,-0.021 0.2579,-0.0439 0.3882,-0.0687 0.1304,-0.0248 0.2617,-0.0514 0.394,-0.0799 0.1323,-0.0284 0.2656,-0.0588 0.3998,-0.0911 0.1342,-0.0323 0.2694,-0.0665 0.4055,-0.1026 0.1361,-0.0361 0.2732,-0.0741 0.4113,-0.1141 0.138,-0.0401 0.277,-0.082 0.417,-0.126 0.14,-0.044 0.2809,-0.0899 0.4228,-0.1379 0.1418,-0.0479 0.2847,-0.0979 0.4285,-0.15 0.1438,-0.052 0.2885,-0.1061 0.4343,-0.1622 0.1457,-0.0561 0.2924,-0.1143 0.44,-0.1746 0.1476,-0.0604 0.2962,-0.1228 0.4458,-0.1873 0.1495,-0.0645 0.3,-0.1312 0.4515,-0.2 0.1515,-0.0688 0.3039,-0.1397 0.4573,-0.2129 0.1534,-0.0731 0.3077,-0.1484 0.463,-0.226 0.1553,-0.0775 0.3116,-0.1572 0.4688,-0.2392 0.1572,-0.0819 0.3154,-0.1661 0.4745,-0.2526 0.1592,-0.0865 0.3193,-0.1752 0.4803,-0.2662 0.1611,-0.091 0.3231,-0.1843 0.4861,-0.2799 0.1629,-0.0956 0.3269,-0.1936 0.4917,-0.2938 0.1649,-0.1003 0.3308,-0.2029 0.4976,-0.3079 0.1668,-0.105 0.3346,-0.2123 0.5033,-0.3221 0.1687,-0.1097 0.3384,-0.2219 0.509,-0.3365 0.1707,-0.1145 0.3423,-0.2315 0.5148,-0.351 0.1726,-0.1194 0.3461,-0.2413 0.5206,-0.3657 0.1745,-0.1244 0.3499,-0.2512 0.5263,-0.3806 0.1764,-0.1294 0.3537,-0.2612 0.532,-0.3957 0.1784,-0.1344 0.3576,-0.2713 0.5379,-0.4108 0.1802,-0.1395 0.3614,-0.2816 0.5435,-0.4262 0.1822,-0.1446 0.3653,-0.2919 0.5493,-0.4417 0.1841,-0.1499 0.3691,-0.3024 0.5551,-0.4575 0.186,-0.1551 0.3729,-0.3128 0.5608,-0.4732 0.1879,-0.1605 0.3768,-0.3236 0.5666,-0.4893 0.1898,-0.1658 0.3806,-0.3343 0.5723,-0.5055 0.1917,-0.1712 0.3844,-0.3452 0.5781,-0.5218 0.1936,-0.1767 0.3882,-0.3562 0.5838,-0.5384 0.1955,-0.1822 0.3921,-0.3672 0.5896,-0.555 0.1974,-0.1878 0.3959,-0.3784 0.5953,-0.5718 0.1994,-0.1935 0.3997,-0.3897 0.6011,-0.5889 0.2013,-0.1991 0.4036,-0.4011 0.6068,-0.606 0.2032,-0.2048 0.4074,-0.4126 0.6126,-0.6233 0.2051,-0.2107 0.4112,-0.4243 0.6183,-0.6408 0.2071,-0.2165 0.4151,-0.436 0.6241,-0.6585 0.209,-0.2224 0.4189,-0.4478 0.6298,-0.6763 0.2109,-0.2284 0.4228,-0.4598 0.6356,-0.6942 0.2129,-0.2345 0.4266,-0.4719 0.6414,-0.7124 0.2147,-0.2405 0.4304,-0.4841 0.6471,-0.7307 0.2166,-0.2467 0.4342,-0.4964 0.6528,-0.7492 0.2186,-0.2528 0.4381,-0.5088 0.6586,-0.7678 0.2205,-0.2591 0.442,-0.5213 0.6644,-0.7867 0.2224,-0.2653 0.4457,-0.5338 0.6701,-0.8055 0.2243,-0.2717 0.4496,-0.5466 0.6758,-0.8247 0.2263,-0.2781 0.4535,-0.5595 0.6816,-0.844 0.2282,-0.2846 0.4573,-0.5724 0.6874,-0.8634 0.2301,-0.2911 0.4611,-0.5855 0.6931,-0.8831 0.232,-0.2976 0.465,-0.5986 0.6989,-0.9028 0.2339,-0.3043 0.4687,-0.6119 0.7046,-0.9228 0.2358,-0.3109 0.4726,-0.6252 0.7103,-0.9429 0.2378,-0.3176 0.4765,-0.6387 0.7162,-0.9631 0.2396,-0.3244 0.4803,-0.6523 0.7218,-0.9836 0.2416,-0.3312 0.4842,-0.666 0.7277,-1.0041 0.2435,-0.3382 0.4879,-0.6798 0.7333,-1.025 0.2454,-0.3451 0.4918,-0.6937 0.7392,-1.0458 0.2473,-0.3521 0.4956,-0.7078 0.7448,-1.0669 0.2493,-0.3592 0.4995,-0.7219 0.7507,-1.0882 0.2511,-0.3663 0.5033,-0.7362 0.7563,-1.1096 0.2531,-0.3734 0.5072,-0.7505 0.7622,-1.1312 0.255,-0.3806 0.5109,-0.7649 0.7679,-1.1529 0.2564,-0.3879 0.5144,-0.7795 0.7734,-1.1748 0.259,-0.3952 0.519,-0.7942 0.78,-1.1969 0.26,-0.4026 0.522,-0.809 0.785,-1.2191 0.262,-0.41 0.526,-0.8239 0.791,-1.2414 0.264,-0.4176 0.53,-0.839 0.796,-1.2641 0.267,-0.4251 0.534,-0.854 0.803,-1.2868 0.268,-0.4327 0.537,-0.8692 0.808,-1.3096 0.27,-0.4404 0.541,-0.8846 0.814,-1.3327 0.272,-0.4481 0.545,-0.9001 0.819,-1.3559 0.275,-0.4559 0.55,-0.9156 0.826,-1.3793 0.276,-0.4637 0.553,-0.9313 0.831,-1.4028 0.278,-0.4716 0.557,-0.9471 0.837,-1.4266 0.28,-0.4794 0.561,-0.9629 0.843,-1.4503 0.281,-0.4875 0.564,-0.979 0.848,-1.4744 0.284,-0.4955 0.568,-0.9951 0.854,-1.4987 0.286,-0.5035 0.572,-1.0112 0.86,-1.5229 0.288,-0.5117 0.576,-1.0276 0.866,-1.5475 0.289,-0.5199 0.58,-1.044 0.871,-1.5721 0.292,-0.5282 0.584,-1.0605 0.877,-1.597 0.294,-0.5365 0.588,-1.0772 0.883,-1.622 0.295,-0.5449 0.592,-1.0939 0.889,-1.6472"
       id="path6198" />
    <path
       style="fill:none;stroke:#000000;stroke-width:0.5;stroke-linecap:round;stroke-linejoin:round;stroke-miterlimit:4;stroke-dasharray:none;marker-end:url(#marker5137)"
       d="M 80.261,116.556 V 20.3924"
       id="path5998" />
    <path
       style="fill:none;stroke:#000000;stroke-width:0.5;stroke-linecap:round;stroke-linejoin:round;stroke-miterlimit:4;stroke-dasharray:none;marker-end:url(#marker5137)"
       d="m 32.1793,68.4745 h 96.1636"
       id="path5991" />
  </g>
</svg>
