<?xml version="1.0" encoding="UTF-8" standalone="no"?>
<svg
   xmlns:dc="http://purl.org/dc/elements/1.1/"
   xmlns:cc="http://creativecommons.org/ns#"
   xmlns:rdf="http://www.w3.org/1999/02/22-rdf-syntax-ns#"
   xmlns:svg="http://www.w3.org/2000/svg"
   xmlns="http://www.w3.org/2000/svg"
   xmlns:sodipodi="http://sodipodi.sourceforge.net/DTD/sodipodi-0.dtd"
   xmlns:inkscape="http://www.inkscape.org/namespaces/inkscape"
   width="210mm"
   height="297mm"
   viewBox="0 0 210 297"
   version="1.1"
   id="svg8"
   inkscape:version="1.0.2 (e86c870879, 2021-01-15, custom)"
   sodipodi:docname="suspension_hole.svg">
  <defs
     id="defs2">
    <inkscape:path-effect
       effect="bspline"
       id="path-effect912"
       is_visible="true"
       lpeversion="1"
       weight="33.333333"
       steps="2"
       helper_size="0"
       apply_no_weight="true"
       apply_with_weight="true"
       only_selected="false" />
    <inkscape:path-effect
       effect="bspline"
       id="path-effect908"
       is_visible="true"
       lpeversion="1"
       weight="33.333333"
       steps="2"
       helper_size="0"
       apply_no_weight="true"
       apply_with_weight="true"
       only_selected="false" />
    <inkscape:path-effect
       effect="bspline"
       id="path-effect900"
       is_visible="true"
       lpeversion="1"
       weight="33.333333"
       steps="2"
       helper_size="0"
       apply_no_weight="true"
       apply_with_weight="true"
       only_selected="false" />
    <inkscape:path-effect
       effect="bspline"
       id="path-effect887"
       is_visible="true"
       lpeversion="1"
       weight="33.333333"
       steps="2"
       helper_size="0"
       apply_no_weight="true"
       apply_with_weight="true"
       only_selected="false" />
    <inkscape:path-effect
       effect="bspline"
       id="path-effect1019"
       is_visible="true"
       lpeversion="1"
       weight="33.333333"
       steps="2"
       helper_size="0"
       apply_no_weight="true"
       apply_with_weight="true"
       only_selected="false" />
    <inkscape:path-effect
       effect="bspline"
       id="path-effect1015"
       is_visible="true"
       lpeversion="1"
       weight="33.333333"
       steps="2"
       helper_size="0"
       apply_no_weight="true"
       apply_with_weight="true"
       only_selected="false" />
    <inkscape:path-effect
       effect="bspline"
       id="path-effect1011"
       is_visible="true"
       lpeversion="1"
       weight="33.333333"
       steps="2"
       helper_size="0"
       apply_no_weight="true"
       apply_with_weight="true"
       only_selected="false" />
    <inkscape:path-effect
       effect="bspline"
       id="path-effect1007"
       is_visible="true"
       lpeversion="1"
       weight="33.333333"
       steps="2"
       helper_size="0"
       apply_no_weight="true"
       apply_with_weight="true"
       only_selected="false" />
    <inkscape:path-effect
       effect="bspline"
       id="path-effect1003"
       is_visible="true"
       lpeversion="1"
       weight="33.333333"
       steps="2"
       helper_size="0"
       apply_no_weight="true"
       apply_with_weight="true"
       only_selected="false" />
    <inkscape:path-effect
       effect="bspline"
       id="path-effect999"
       is_visible="true"
       lpeversion="1"
       weight="33.333333"
       steps="2"
       helper_size="0"
       apply_no_weight="true"
       apply_with_weight="true"
       only_selected="false" />
    <inkscape:path-effect
       effect="bspline"
       id="path-effect995"
       is_visible="true"
       lpeversion="1"
       weight="33.333333"
       steps="2"
       helper_size="0"
       apply_no_weight="true"
       apply_with_weight="true"
       only_selected="false" />
    <inkscape:path-effect
       effect="bspline"
       id="path-effect991"
       is_visible="true"
       lpeversion="1"
       weight="33.333333"
       steps="2"
       helper_size="0"
       apply_no_weight="true"
       apply_with_weight="true"
       only_selected="false" />
    <inkscape:path-effect
       effect="bspline"
       id="path-effect987"
       is_visible="true"
       lpeversion="1"
       weight="33.333333"
       steps="2"
       helper_size="0"
       apply_no_weight="true"
       apply_with_weight="true"
       only_selected="false" />
    <inkscape:path-effect
       effect="bspline"
       id="path-effect983"
       is_visible="true"
       lpeversion="1"
       weight="33.333333"
       steps="2"
       helper_size="0"
       apply_no_weight="true"
       apply_with_weight="true"
       only_selected="false" />
    <inkscape:path-effect
       effect="bspline"
       id="path-effect979"
       is_visible="true"
       lpeversion="1"
       weight="33.333333"
       steps="2"
       helper_size="0"
       apply_no_weight="true"
       apply_with_weight="true"
       only_selected="false" />
    <inkscape:path-effect
       effect="bspline"
       id="path-effect957"
       is_visible="true"
       lpeversion="1"
       weight="33.333333"
       steps="2"
       helper_size="0"
       apply_no_weight="true"
       apply_with_weight="true"
       only_selected="false" />
    <inkscape:path-effect
       effect="bspline"
       id="path-effect953"
       is_visible="true"
       lpeversion="1"
       weight="33.333333"
       steps="2"
       helper_size="0"
       apply_no_weight="true"
       apply_with_weight="true"
       only_selected="false" />
    <inkscape:path-effect
       effect="bspline"
       id="path-effect949"
       is_visible="true"
       lpeversion="1"
       weight="33.333333"
       steps="2"
       helper_size="0"
       apply_no_weight="true"
       apply_with_weight="true"
       only_selected="false" />
    <inkscape:path-effect
       effect="bspline"
       id="path-effect941"
       is_visible="true"
       lpeversion="1"
       weight="33.333333"
       steps="2"
       helper_size="0"
       apply_no_weight="true"
       apply_with_weight="true"
       only_selected="false" />
    <inkscape:path-effect
       effect="bspline"
       id="path-effect937"
       is_visible="true"
       lpeversion="1"
       weight="33.333333"
       steps="2"
       helper_size="0"
       apply_no_weight="true"
       apply_with_weight="true"
       only_selected="false" />
    <inkscape:path-effect
       effect="bspline"
       id="path-effect933"
       is_visible="true"
       lpeversion="1"
       weight="33.333333"
       steps="2"
       helper_size="0"
       apply_no_weight="true"
       apply_with_weight="true"
       only_selected="false" />
    <inkscape:path-effect
       effect="bspline"
       id="path-effect929"
       is_visible="true"
       lpeversion="1"
       weight="33.333333"
       steps="2"
       helper_size="0"
       apply_no_weight="true"
       apply_with_weight="true"
       only_selected="false" />
    <inkscape:path-effect
       effect="bspline"
       id="path-effect925"
       is_visible="true"
       lpeversion="1"
       weight="33.333333"
       steps="2"
       helper_size="0"
       apply_no_weight="true"
       apply_with_weight="true"
       only_selected="false" />
    <inkscape:path-effect
       effect="bspline"
       id="path-effect921"
       is_visible="true"
       lpeversion="1"
       weight="33.333333"
       steps="2"
       helper_size="0"
       apply_no_weight="true"
       apply_with_weight="true"
       only_selected="false" />
    <inkscape:path-effect
       effect="bspline"
       id="path-effect901"
       is_visible="true"
       lpeversion="1"
       weight="33.333333"
       steps="2"
       helper_size="0"
       apply_no_weight="true"
       apply_with_weight="true"
       only_selected="false" />
    <inkscape:path-effect
       effect="bspline"
       id="path-effect890"
       is_visible="true"
       lpeversion="1"
       weight="33.333333"
       steps="2"
       helper_size="0"
       apply_no_weight="true"
       apply_with_weight="true"
       only_selected="false" />
    <inkscape:path-effect
       effect="bspline"
       id="path-effect871"
       is_visible="true"
       lpeversion="1"
       weight="33.333333"
       steps="2"
       helper_size="0"
       apply_no_weight="true"
       apply_with_weight="true"
       only_selected="false" />
    <inkscape:path-effect
       effect="bspline"
       id="path-effect867"
       is_visible="true"
       lpeversion="1"
       weight="33.333333"
       steps="2"
       helper_size="0"
       apply_no_weight="true"
       apply_with_weight="true"
       only_selected="false" />
    <inkscape:path-effect
       effect="bspline"
       id="path-effect863"
       is_visible="true"
       lpeversion="1"
       weight="33.333333"
       steps="2"
       helper_size="0"
       apply_no_weight="true"
       apply_with_weight="true"
       only_selected="false" />
  </defs>
  <sodipodi:namedview
     id="base"
     pagecolor="#ffffff"
     bordercolor="#666666"
     borderopacity="1.0"
     inkscape:pageopacity="0.0"
     inkscape:pageshadow="2"
     inkscape:zoom="2"
     inkscape:cx="288.7676"
     inkscape:cy="343.69443"
     inkscape:document-units="mm"
     inkscape:current-layer="layer1"
     inkscape:document-rotation="0"
     showgrid="false"
     inkscape:window-width="1920"
     inkscape:window-height="1051"
     inkscape:window-x="-9"
     inkscape:window-y="-9"
     inkscape:window-maximized="1"
     showguides="true"
     inkscape:guide-bbox="true" />
  <metadata
     id="metadata5">
    <rdf:RDF>
      <cc:Work
         rdf:about="">
        <dc:format>image/svg+xml</dc:format>
        <dc:type
           rdf:resource="http://purl.org/dc/dcmitype/StillImage" />
        <dc:title></dc:title>
      </cc:Work>
    </rdf:RDF>
  </metadata>
  <g
     inkscape:label="Layer 1"
     inkscape:groupmode="layer"
     id="layer1">
    <path
       style="fill:none;stroke:#ff6600;stroke-width:1;stroke-linecap:round;stroke-linejoin:round;stroke-miterlimit:4;stroke-dasharray:none;stroke-opacity:1;opacity:1"
       d="m 28.771074,81.088665 c 3.16367,-0.250049 8.19679,-0.70013 12.331184,-0.725107 4.134395,-0.02498 7.369907,0.375087 9.469336,0.323514 2.099429,-0.05157 3.062772,-0.554674 1.876435,-1.279755 -1.186337,-0.725081 -4.52241,-1.672199 -6.657858,-2.44579 -2.135448,-0.77359 -3.070152,-1.373685 -2.81853,-1.998902 0.251621,-0.625216 1.689626,-1.275319 4.026508,-1.650362 2.336882,-0.375043 5.572393,-0.475059 10.605585,-0.400036 5.033192,0.07502 11.863716,0.325063 18.658497,0.650127 6.794781,0.325065 13.553402,0.725128 17.687766,1.375311 4.134365,0.650184 5.644273,1.550328 5.931778,2.425406 0.287505,0.875078 -0.647201,1.725213 3.4e-5,2.475406 0.647231,0.750193 2.876141,1.400295 6.111761,1.925369 3.23562,0.525074 7.47772,0.925136 11.54021,2.200438"
       id="path1070" />
    <path
       style="fill:none;stroke:#000000;stroke-width:0.5;stroke-linecap:round;stroke-linejoin:round;stroke-miterlimit:4;stroke-dasharray:0.5, 1;stroke-dashoffset:0;stroke-opacity:1"
       d="M 70.689556,145.49902 C 61.401099,122.05469 52.112563,98.610167 42.823951,75.16545"
       id="path1009"
       inkscape:path-effect="#path-effect1011"
       inkscape:original-d="M 70.689556,145.49902 C 61.401237,122.05464 52.1127,98.610113 42.823951,75.16545"
       sodipodi:nodetypes="cc" />
    <path
       style="fill:none;stroke:#000000;stroke-width:0.5;stroke-linecap:round;stroke-linejoin:round;stroke-miterlimit:4;stroke-dasharray:0.5, 1;stroke-dashoffset:0;stroke-opacity:1"
       d="M 67.02773,73.177861 C 68.248325,63.179343 69.468935,53.180702 70.689559,43.18194"
       id="path939"
       inkscape:path-effect="#path-effect941"
       inkscape:original-d="M 67.02773,73.177861 C 68.248555,63.179371 69.469166,53.18073 70.689559,43.18194"
       sodipodi:nodetypes="cc" />
    <path
       style="fill:none;stroke:#000000;stroke-width:0.5;stroke-linecap:round;stroke-linejoin:round;stroke-miterlimit:4;stroke-dasharray:0.5, 1;stroke-dashoffset:0;stroke-opacity:1"
       d="M 94.815347,75.062155 C 86.773566,64.435613 78.731639,53.808878 70.689559,43.18194"
       id="path947"
       inkscape:path-effect="#path-effect949"
       inkscape:original-d="M 94.815347,75.062155 C 86.77363,64.435565 78.731705,53.808828 70.689559,43.18194"
       sodipodi:nodetypes="cc" />
    <path
       style="fill:none;stroke:#000000;stroke-width:0.5;stroke-linecap:round;stroke-linejoin:round;stroke-miterlimit:4;stroke-dasharray:none;stroke-opacity:1"
       d="M 128.80663,98.701086 C 109.43433,114.30035 90.061975,129.89966 70.689556,145.49902"
       id="path977"
       inkscape:path-effect="#path-effect979"
       inkscape:original-d="M 128.80663,98.701086 C 109.43449,114.30055 90.062129,129.89985 70.689556,145.49902"
       sodipodi:nodetypes="cc" />
    <path
       style="fill:none;stroke:#000000;stroke-width:0.5;stroke-linecap:round;stroke-linejoin:round;stroke-miterlimit:4;stroke-dasharray:none;stroke-opacity:1"
       d="m 92.794862,103.69974 c -7.368448,13.93312 -14.736886,27.86622 -22.105306,41.79928"
       id="path981"
       inkscape:path-effect="#path-effect983"
       inkscape:original-d="M 92.794862,103.69974 C 85.426645,117.63298 78.05821,131.56608 70.689556,145.49902"
       sodipodi:nodetypes="cc" />
    <path
       style="fill:none;stroke:#000000;stroke-width:0.5;stroke-linecap:round;stroke-linejoin:round;stroke-miterlimit:4;stroke-dasharray:none;stroke-opacity:1"
       d="m 44.056911,101.44727 c 8.877673,14.68412 17.755219,29.36804 26.632645,44.05175"
       id="path985"
       inkscape:path-effect="#path-effect987"
       inkscape:original-d="m 44.056911,101.44727 c 8.877762,14.68407 17.755312,29.36798 26.632645,44.05175"
       sodipodi:nodetypes="cc" />
    <path
       style="fill:none;stroke:#000000;stroke-width:0.5;stroke-linecap:round;stroke-linejoin:round;stroke-miterlimit:4;stroke-dasharray:0.5, 1;stroke-dashoffset:0;stroke-opacity:1"
       d="M 19.396405,83.370921 C 36.494284,104.08048 53.591998,124.78985 70.689556,145.49902"
       id="path989"
       inkscape:path-effect="#path-effect991"
       inkscape:original-d="M 19.396405,83.370921 C 36.494336,104.08044 53.592053,124.7898 70.689556,145.49902"
       sodipodi:nodetypes="cc" />
    <path
       style="fill:none;stroke:#000000;stroke-width:0.5;stroke-linecap:round;stroke-linejoin:round;stroke-miterlimit:4;stroke-dasharray:0.5, 1;stroke-dashoffset:0;stroke-opacity:1"
       d="m 67.02773,73.177861 c 1.220617,24.107213 2.441225,48.214259 3.661826,72.321159"
       id="path993"
       inkscape:path-effect="#path-effect995"
       inkscape:original-d="m 67.02773,73.177861 c 1.220824,24.107203 2.441433,48.214249 3.661826,72.321159"
       sodipodi:nodetypes="cc" />
    <path
       style="fill:none;stroke:#000000;stroke-width:0.5;stroke-linecap:round;stroke-linejoin:round;stroke-miterlimit:4;stroke-dasharray:0.5, 1;stroke-dashoffset:0;stroke-opacity:1"
       d="M 94.815347,75.062155 C 86.773394,98.541176 78.731465,122.02013 70.689556,145.49902"
       id="path997"
       inkscape:path-effect="#path-effect999"
       inkscape:original-d="M 94.815347,75.062155 C 86.77363,98.541257 78.731703,122.02021 70.689556,145.49902" />
    <path
       style="fill:none;stroke:#000000;stroke-width:0.5;stroke-linecap:round;stroke-linejoin:round;stroke-miterlimit:4;stroke-dasharray:0.5, 1;stroke-dashoffset:0;stroke-opacity:1"
       d="M 125.54894,88.031861 C 107.2625,107.18755 88.976053,126.34326 70.689556,145.49902"
       id="path1001"
       inkscape:path-effect="#path-effect1003"
       inkscape:original-d="M 125.54894,88.031861 C 107.26269,107.18773 88.976238,126.34344 70.689556,145.49902" />
    <path
       style="fill:none;stroke:#000000;stroke-width:0.5;stroke-linecap:round;stroke-linejoin:round;stroke-miterlimit:4;stroke-dasharray:0.5, 1;stroke-dashoffset:0;stroke-opacity:1"
       d="M 42.803909,75.188239 C 52.044569,64.582318 61.391472,53.854457 70.685225,43.187599"
       id="path1005"
       inkscape:path-effect="#path-effect1007"
       inkscape:original-d="m 42.803909,75.188239 c 9.240857,-10.60575 18.58776,-21.333611 27.881316,-32.00064"
       sodipodi:nodetypes="cc" />
    <path
       style="fill:none;stroke:#000000;stroke-width:0.5;stroke-linecap:round;stroke-linejoin:round;stroke-miterlimit:4;stroke-dasharray:none;stroke-opacity:1"
       d="M 70.689556,145.49902 C 53.466929,128.98753 36.244114,112.47586 19.021111,95.964009"
       id="path1013"
       inkscape:path-effect="#path-effect1015"
       inkscape:original-d="M 70.689556,145.49902 C 53.466957,128.9875 36.244142,112.47583 19.021111,95.964009" />
    <path
       style="fill:none;stroke:#000000;stroke-width:0.5;stroke-linecap:round;stroke-linejoin:round;stroke-miterlimit:4;stroke-dasharray:none;stroke-opacity:1"
       d="M 70.689559,43.18194 C 53.591901,56.57822 36.494185,69.974545 19.396405,83.370921"
       id="path923"
       inkscape:path-effect="#path-effect925"
       inkscape:original-d="M 70.689559,43.18194 C 53.592056,56.578417 36.494339,69.974742 19.396405,83.370921"
       sodipodi:nodetypes="cc" />
    <path
       style="fill:#ff6600;stroke:#ff6600;stroke-width:1;stroke-linecap:round;stroke-linejoin:round;stroke-miterlimit:4;stroke-dasharray:none;stroke-opacity:1;opacity:0.36721311"
       d="m 28.771074,81.088665 c 3.16367,-0.250049 8.19679,-0.70013 12.331184,-0.725107 4.134395,-0.02498 7.369907,0.375087 9.469336,0.323514 2.099429,-0.05157 3.062772,-0.554674 1.876435,-1.279755 -1.186337,-0.725081 -4.52241,-1.672199 -6.657858,-2.44579 -2.135448,-0.77359 -3.070152,-1.373685 -2.81853,-1.998902 0.251621,-0.625216 1.689626,-1.275319 4.026508,-1.650362 2.336882,-0.375043 5.572393,-0.475059 10.605585,-0.400036 5.033192,0.07502 11.863716,0.325063 18.658497,0.650127 6.794781,0.325065 13.553402,0.725128 17.687766,1.375311 4.134365,0.650184 5.644273,1.550328 5.931778,2.425406 0.287505,0.875078 -0.647201,1.725213 3.4e-5,2.475406 0.647231,0.750193 2.876141,1.400295 6.111761,1.925369 3.23562,0.525074 7.47772,0.925136 11.54021,2.200438"
       id="path919" />
    <path
       style="fill:#ff6600;stroke:#ff6600;stroke-width:1;stroke-linecap:round;stroke-linejoin:round;stroke-miterlimit:4;stroke-dasharray:none;stroke-opacity:1;opacity:0.36721311"
       d="m 117.53378,83.964284 c 4.06249,1.275302 7.9451,3.425639 10.17397,6.176188 2.22886,2.750548 2.80406,6.101078 1.22225,8.251358 -1.58181,2.15028 -5.32062,3.10043 -10.49759,3.77557 -5.17697,0.67514 -11.7918,1.0752 -19.485362,1.35025 -7.693563,0.27506 -16.465393,0.42508 -21.31878,0.0751 -4.853387,-0.34998 -5.788085,-1.20011 -5.069084,-2.20042 0.719001,-1.0003 3.091708,-2.150482 4.997107,-3.150668 1.905399,-1.000186 3.343401,-1.85032 2.624427,-2.500396 -0.718975,-0.650076 -3.594987,-1.100147 -6.111604,-1.025168 -2.516617,0.07498 -4.673625,0.675074 -7.837348,1.675263 -3.163722,1.000189 -7.333937,2.40041 -12.726608,3.525631 -5.392671,1.125218 -12.007496,1.975358 -16.932773,2.100408 -4.925277,0.12505 -8.160788,-0.47505 -10.785229,-1.47519 -2.624441,-1.000133 -4.637652,-2.400355 -6.183591,-3.950618 -1.545939,-1.550263 -2.624446,-3.250535 -3.127824,-4.900877 -0.503378,-1.650341 -0.431479,-3.250591 0.143755,-4.700939 0.575234,-1.450349 1.653739,-2.750554 2.804238,-3.650737 1.150498,-0.900184 2.372804,-1.400265 3.631135,-1.675291 1.258331,-0.275027 2.552535,-0.325034 5.716205,-0.575083"
       id="path1044" />
    <path
       style="fill:none;stroke:#000000;stroke-width:0.5;stroke-linecap:round;stroke-linejoin:round;stroke-miterlimit:4;stroke-dasharray:none;stroke-dashoffset:0;stroke-opacity:1"
       d="M 92.794862,103.69974 C 85.425057,83.529227 78.055179,63.358516 70.685227,43.1876"
       id="path927"
       inkscape:path-effect="#path-effect929"
       inkscape:original-d="M 92.794862,103.69974 C 85.425203,83.529174 78.055323,63.358463 70.685227,43.1876"
       sodipodi:nodetypes="cc" />
    <path
       style="fill:none;stroke:#000000;stroke-width:0.5;stroke-linecap:round;stroke-linejoin:round;stroke-miterlimit:4;stroke-dasharray:none;stroke-opacity:1"
       d="M 44.056911,101.44727 C 52.934439,82.02554 61.811989,62.603761 70.689559,43.18194"
       id="path935"
       inkscape:path-effect="#path-effect937"
       inkscape:original-d="M 44.056911,101.44727 C 52.934676,82.025648 61.812225,62.603869 70.689559,43.18194"
       sodipodi:nodetypes="cc" />
    <path
       style="fill:none;stroke:#000000;stroke-width:0.5;stroke-linecap:round;stroke-linejoin:round;stroke-miterlimit:4;stroke-dasharray:none;stroke-opacity:1"
       d="M 125.54894,88.031861 C 107.25414,73.078137 88.973333,58.135852 70.685227,43.1876"
       id="path951"
       inkscape:path-effect="#path-effect953"
       inkscape:original-d="M 125.54894,88.031861 C 107.25415,73.078124 88.973345,58.135837 70.685227,43.1876"
       sodipodi:nodetypes="cc" />
    <path
       style="fill:none;stroke:#000000;stroke-width:0.5;stroke-linecap:round;stroke-linejoin:round;stroke-miterlimit:4;stroke-dasharray:none;stroke-opacity:1"
       d="M 128.80663,98.701086 C 109.3859,80.148496 90.062101,61.688499 70.689559,43.18194"
       id="path955"
       inkscape:path-effect="#path-effect957"
       inkscape:original-d="M 128.80663,98.701086 C 109.38593,80.148467 90.062129,61.688469 70.689559,43.18194"
       sodipodi:nodetypes="cc" />
    <path
       style="fill:none;stroke:#000000;stroke-width:0.5;stroke-linecap:round;stroke-linejoin:round;stroke-miterlimit:4;stroke-dasharray:none;stroke-opacity:1"
       d="M 19.021111,95.964009 C 36.243957,78.369956 53.466774,60.775932 70.689559,43.18194"
       id="path1017"
       inkscape:path-effect="#path-effect1019"
       inkscape:original-d="M 19.021111,95.964009 C 36.244142,78.370137 53.466959,60.776113 70.689559,43.18194" />
    <path
       style="fill:none;stroke:#ff6600;stroke-width:1;stroke-linecap:round;stroke-linejoin:round;stroke-miterlimit:4;stroke-dasharray:none;stroke-opacity:1;opacity:1"
       d="m 117.53378,83.964284 c 4.06249,1.275302 7.9451,3.425639 10.17397,6.176188 2.22886,2.750548 2.80406,6.101078 1.22225,8.251358 -1.58181,2.15028 -5.32062,3.10043 -10.49759,3.77557 -5.17697,0.67514 -11.7918,1.0752 -19.485362,1.35025 -7.693563,0.27506 -16.465393,0.42508 -21.31878,0.0751 -4.853387,-0.34998 -5.788085,-1.20011 -5.069084,-2.20042 0.719001,-1.0003 3.091708,-2.150482 4.997107,-3.150668 1.905399,-1.000186 3.343401,-1.85032 2.624427,-2.500396 -0.718975,-0.650076 -3.594987,-1.100147 -6.111604,-1.025168 -2.516617,0.07498 -4.673625,0.675074 -7.837348,1.675263 -3.163722,1.000189 -7.333937,2.40041 -12.726608,3.525631 -5.392671,1.125218 -12.007496,1.975358 -16.932773,2.100408 -4.925277,0.12505 -8.160788,-0.47505 -10.785229,-1.47519 -2.624441,-1.000133 -4.637652,-2.400355 -6.183591,-3.950618 -1.545939,-1.550263 -2.624446,-3.250535 -3.127824,-4.900877 -0.503378,-1.650341 -0.431479,-3.250591 0.143755,-4.700939 0.575234,-1.450349 1.653739,-2.750554 2.804238,-3.650737 1.150498,-0.900184 2.372804,-1.400265 3.631135,-1.675291 1.258331,-0.275027 2.552535,-0.325034 5.716205,-0.575083"
       id="path1072" />
    <text
       xml:space="preserve"
       style="font-style:normal;font-weight:normal;font-size:3.52778px;line-height:1.25;font-family:sans-serif;fill:#000000;fill-opacity:1;stroke:none;stroke-width:0.264583"
       x="101.21497"
       y="95.789398"
       id="text1076"><tspan
         sodipodi:role="line"
         id="tspan1074"
         x="101.21497"
         y="95.789398"
         style="font-size:3.52778px;stroke-width:0.264583">$X$</tspan></text>
    <text
       xml:space="preserve"
       style="font-style:normal;font-weight:normal;font-size:3.52778px;line-height:1.25;font-family:sans-serif;fill:#000000;fill-opacity:1;stroke:none;stroke-width:0.264583"
       x="100.42123"
       y="60.552532"
       id="text1080"><tspan
         sodipodi:role="line"
         id="tspan1078"
         x="100.42123"
         y="60.552532"
         style="font-size:3.52778px;stroke-width:0.264583">$\Sigma X$</tspan></text>
    <path
       style="fill:#ffffff;stroke:#ff6600;stroke-width:1;stroke-linecap:butt;stroke-linejoin:miter;stroke-opacity:1;stroke-miterlimit:4;stroke-dasharray:none;opacity:1"
       d="m 55.690217,90.613228 c 0.654847,-0.218265 1.34084,-0.374172 2.260666,-0.717178 0.919825,-0.343006 2.073517,-0.87308 3.617104,-1.013348 1.543588,-0.140267 3.4768,0.10918 5.207396,0.452206 1.730595,0.343026 3.258456,0.779557 4.661599,0.950999 1.403142,0.171443 2.681556,0.0779 3.726062,-0.202752 1.044505,-0.280653 1.855207,-0.748365 1.979954,-1.636865 0.124747,-0.888499 -0.436508,-2.198094 -1.558982,-2.931007 -1.122474,-0.732912 -2.806237,-0.888816 -4.022412,-0.779717 -1.216174,0.109099 -1.964515,0.483269 -2.759617,0.795087 -0.795102,0.311818 -1.636984,0.561264 -3.227215,0.686015 -1.590231,0.124752 -3.92879,0.124752 -5.768496,0.04681 -1.839706,-0.07794 -3.180482,-0.233843 -4.349889,-0.06238 -1.169407,0.17146 -2.167193,0.670354 -2.822085,1.387642 -0.654892,0.717289 -0.966701,1.652715 -0.717057,2.323119 0.249645,0.670404 1.060347,1.075755 1.777428,1.138008 0.717081,0.06225 1.340698,-0.218375 1.995544,-0.436639 z"
       id="path885"
       inkscape:original-d="m 55.658879,90.550914 c 0.686255,-0.155641 1.372248,-0.311549 2.057974,-0.46772 1.154002,-0.52983 2.307693,-1.059905 3.461142,-1.590254 1.933551,0.249722 3.866763,0.499168 5.799748,0.748356 1.528186,0.436811 3.056046,0.873344 4.583671,1.309618 1.278731,-0.09328 2.557145,-0.186822 3.835318,-0.280633 0.810998,-0.467466 1.6217,-0.935177 2.432153,-1.403165 -0.561012,-1.30938 -1.122267,-2.618975 -1.683798,-3.928861 -1.683567,-0.155646 -3.36733,-0.311549 -5.051393,-0.467722 -0.748106,0.374449 -1.496446,0.74862 -2.245063,1.122531 -0.841653,0.249722 -1.683534,0.499169 -2.5257,0.748356 -2.33839,2.64e-4 -4.676949,2.64e-4 -7.015824,0 -1.340564,-0.155647 -2.68134,-0.31155 -4.022407,-0.467723 -0.997561,0.499179 -1.995347,0.998072 -2.993416,1.496711 -0.311558,0.935726 -0.623367,1.871152 -0.935445,2.80633 0.810998,0.40563 1.6217,0.810982 2.432153,1.216075 0.623906,-0.280374 1.247523,-0.561001 1.870887,-0.841899 z"
       inkscape:path-effect="#path-effect887" />
    <path
       style="fill:none;stroke:#000000;stroke-width:0.5;stroke-linecap:round;stroke-linejoin:round;stroke-miterlimit:4;stroke-dasharray:0.5, 1;stroke-dashoffset:0;stroke-opacity:1"
       d="m 67.626548,85.197513 c 0.08739,1.726011 0.174785,3.452001 0.262176,5.17798"
       id="path906"
       inkscape:path-effect="#path-effect908"
       inkscape:original-d="m 67.626548,85.197513 c 0.08741,1.72601 0.174799,3.452 0.262176,5.17798"
       sodipodi:nodetypes="cc" />
    <path
       style="fill:none;stroke:#ff6600;stroke-width:1;stroke-linecap:butt;stroke-linejoin:miter;stroke-opacity:1;stroke-miterlimit:4;stroke-dasharray:none;opacity:1"
       d="m 55.690217,90.613228 c 0.654847,-0.218265 1.34084,-0.374172 2.260666,-0.717178 0.919825,-0.343006 2.073517,-0.87308 3.617104,-1.013348 1.543588,-0.140267 3.4768,0.10918 5.207396,0.452206 1.730595,0.343026 3.258456,0.779557 4.661599,0.950999 1.403142,0.171443 2.681556,0.0779 3.726062,-0.202752 1.044505,-0.280653 1.855207,-0.748365 1.979954,-1.636865 0.124747,-0.888499 -0.436508,-2.198094 -1.558982,-2.931007 -1.122474,-0.732912 -2.806237,-0.888816 -4.022412,-0.779717 -1.216174,0.109099 -1.964515,0.483269 -2.759617,0.795087 -0.795102,0.311818 -1.636984,0.561264 -3.227215,0.686015 -1.590231,0.124752 -3.92879,0.124752 -5.768496,0.04681 -1.839706,-0.07794 -3.180482,-0.233843 -4.349889,-0.06238 -1.169407,0.17146 -2.167193,0.670354 -2.822085,1.387642 -0.654892,0.717289 -0.966701,1.652715 -0.717057,2.323119 0.249645,0.670404 1.060347,1.075755 1.777428,1.138008 0.717081,0.06225 1.340698,-0.218375 1.995544,-0.436639 z"
       id="path910"
       inkscape:original-d="m 55.658879,90.550914 c 0.686255,-0.155641 1.372248,-0.311549 2.057974,-0.46772 1.154002,-0.52983 2.307693,-1.059905 3.461142,-1.590254 1.933551,0.249722 3.866763,0.499168 5.799748,0.748356 1.528186,0.436811 3.056046,0.873344 4.583671,1.309618 1.278731,-0.09328 2.557145,-0.186822 3.835318,-0.280633 0.810998,-0.467466 1.6217,-0.935177 2.432153,-1.403165 -0.561012,-1.30938 -1.122267,-2.618975 -1.683798,-3.928861 -1.683567,-0.155646 -3.36733,-0.311549 -5.051393,-0.467722 -0.748106,0.374449 -1.496446,0.74862 -2.245063,1.122531 -0.841653,0.249722 -1.683534,0.499169 -2.5257,0.748356 -2.33839,2.64e-4 -4.676949,2.64e-4 -7.015824,0 -1.340564,-0.155647 -2.68134,-0.31155 -4.022407,-0.467723 -0.997561,0.499179 -1.995347,0.998072 -2.993416,1.496711 -0.311558,0.935726 -0.623367,1.871152 -0.935445,2.80633 0.810998,0.40563 1.6217,0.810982 2.432153,1.216075 0.623906,-0.280374 1.247523,-0.561001 1.870887,-0.841899 z"
       inkscape:path-effect="#path-effect912" />
  </g>
</svg>
