<?xml version="1.0" encoding="UTF-8" standalone="no"?>
<svg
   xmlns:dc="http://purl.org/dc/elements/1.1/"
   xmlns:cc="http://creativecommons.org/ns#"
   xmlns:rdf="http://www.w3.org/1999/02/22-rdf-syntax-ns#"
   xmlns:svg="http://www.w3.org/2000/svg"
   xmlns="http://www.w3.org/2000/svg"
   xmlns:sodipodi="http://sodipodi.sourceforge.net/DTD/sodipodi-0.dtd"
   xmlns:inkscape="http://www.inkscape.org/namespaces/inkscape"
   width="210mm"
   height="297mm"
   viewBox="0 0 210 297"
   version="1.1"
   id="svg8"
   inkscape:version="1.0.2 (e86c870879, 2021-01-15, custom)"
   sodipodi:docname="torus_orange.svg">
  <defs
     id="defs2">
    <inkscape:path-effect
       effect="bspline"
       id="path-effect890"
       is_visible="true"
       lpeversion="1"
       weight="33.333333"
       steps="2"
       helper_size="0"
       apply_no_weight="true"
       apply_with_weight="true"
       only_selected="false" />
    <inkscape:path-effect
       effect="bspline"
       id="path-effect871"
       is_visible="true"
       lpeversion="1"
       weight="33.333333"
       steps="2"
       helper_size="0"
       apply_no_weight="true"
       apply_with_weight="true"
       only_selected="false" />
    <inkscape:path-effect
       effect="bspline"
       id="path-effect867"
       is_visible="true"
       lpeversion="1"
       weight="33.333333"
       steps="2"
       helper_size="0"
       apply_no_weight="true"
       apply_with_weight="true"
       only_selected="false" />
    <inkscape:path-effect
       effect="bspline"
       id="path-effect863"
       is_visible="true"
       lpeversion="1"
       weight="33.333333"
       steps="2"
       helper_size="0"
       apply_no_weight="true"
       apply_with_weight="true"
       only_selected="false" />
  </defs>
  <sodipodi:namedview
     id="base"
     pagecolor="#ffffff"
     bordercolor="#666666"
     borderopacity="1.0"
     inkscape:pageopacity="0.0"
     inkscape:pageshadow="2"
     inkscape:zoom="1"
     inkscape:cx="473.06428"
     inkscape:cy="555.688"
     inkscape:document-units="mm"
     inkscape:current-layer="layer1"
     inkscape:document-rotation="0"
     showgrid="false"
     inkscape:window-width="1920"
     inkscape:window-height="1051"
     inkscape:window-x="-9"
     inkscape:window-y="-9"
     inkscape:window-maximized="1" />
  <metadata
     id="metadata5">
    <rdf:RDF>
      <cc:Work
         rdf:about="">
        <dc:format>image/svg+xml</dc:format>
        <dc:type
           rdf:resource="http://purl.org/dc/dcmitype/StillImage" />
        <dc:title></dc:title>
      </cc:Work>
    </rdf:RDF>
  </metadata>
  <g
     inkscape:label="Layer 1"
     inkscape:groupmode="layer"
     id="layer1">
    <path
       style="fill:#b3b3b3;stroke:#cccccc;stroke-width:0.264583px;stroke-linecap:butt;stroke-linejoin:miter;stroke-opacity:1"
       d="m 105.92167,116.24031 c -1.23458,-0.17637 -3.70398,-0.52914 -7.011306,-0.70556 -3.307331,-0.17641 -7.452386,-0.17641 -11.840132,0.28659 -4.387745,0.463 -8.642006,0.98476 -12.190898,2.01507 -4.784614,1.38907 -6.31528,2.23828 -8.134739,3.46503 -2.013142,1.35735 -3.066009,2.07223 -4.612304,3.81458 -0.845926,0.95318 -0.788578,1.39376 -0.573425,1.58123 0.215152,0.18746 0.673628,0.41876 1.189831,0.71556 0.516204,0.29679 1.115421,0.54647 1.53926,0.70313 0.42384,0.15667 0.676203,0.222 0.835882,0.0622 0.159679,-0.15979 0.227013,-0.54482 0.376431,-0.96891 0.149417,-0.42409 0.380922,-0.8871 0.634503,-1.273 0.253581,-0.3859 0.529181,-0.69457 0.826864,-0.97847 0.297682,-0.2839 0.617379,-0.54296 1.063882,-0.8737 0.446502,-0.33074 1.019755,-0.73312 1.435922,-1.02802 0.416167,-0.2949 0.675233,-0.48231 1.052853,-0.69454 0.377619,-0.21223 0.873703,-0.44925 1.51314,-0.70832 0.639436,-0.25908 1.422146,-0.54019 2.180079,-0.80478 0.757932,-0.26458 1.491034,-0.51263 2.033991,-0.68901 0.542958,-0.17639 0.89573,-0.28112 1.485539,-0.452 0.589809,-0.17088 1.416615,-0.4079 2.24346,-0.6146 0.826844,-0.20671 1.653648,-0.38309 2.604511,-0.56775 0.950863,-0.18465 2.025712,-0.37757 2.791907,-0.51262 0.766195,-0.13505 1.223697,-0.21222 1.7887,-0.30592 0.565003,-0.0937 1.237472,-0.20395 1.912732,-0.28663 0.67526,-0.0827 1.353238,-0.1378 1.987139,-0.19016 0.633901,-0.0524 1.223697,-0.10197 1.838311,-0.14331 0.614615,-0.0413 1.254013,-0.0744 1.901695,-0.11574 0.647683,-0.0413 1.303615,-0.0909 2.224162,-0.12953 0.920548,-0.0386 2.105637,-0.0662 2.918676,-0.0965 0.813034,-0.0303 1.254004,-0.0634 1.681204,-0.0827 0.42721,-0.0193 0.84061,-0.0248 1.37529,-0.033 0.53469,-0.008 1.19062,-0.0193 1.82728,-0.0303 0.63666,-0.011 1.25401,-0.0221 1.63982,-0.0524 0.38582,-0.0303 1.97838,0.11878 2.05547,0.094 0.0771,-0.0248 -1.36114,-0.22358 -2.59573,-0.39995 z"
       id="path865"
       sodipodi:nodetypes="ssssssssssssssssssssssssscccssscsscss" />
    <path
       id="path861"
       style="fill:#b3b3b3;stroke:#cccccc;stroke-width:0.264583px;stroke-linecap:butt;stroke-linejoin:miter;stroke-opacity:1"
       d="m 175.94791,126.73542 c -1.27887,2.46954 -2.55769,4.93893 -5.15938,7.47448 -2.60169,2.53554 -6.06334,5.53435 -10.71562,8.2243 -4.65228,2.68995 -10.49496,4.87271 -16.44809,7.01146 -5.95313,2.13875 -12.15657,3.35245 -21.60747,5.04879 -8.599,1.54343 -22.644025,3.13106 -34.969441,3.06493 4.983263,0.3087 9.966118,0.61737 14.442011,0.69453 4.4759,0.0771 8.44477,-0.0772 11.94501,-0.29766 3.50024,-0.22049 6.53205,-0.50728 9.74566,-0.93172 3.2136,-0.42445 6.60888,-0.9865 9.53585,-1.53221 2.92697,-0.54571 5.38502,-1.07503 7.90959,-1.72547 2.52458,-0.65045 5.11526,-1.42195 7.92097,-2.40864 2.8057,-0.98669 5.82634,-2.18849 8.51627,-3.46181 2.68993,-1.27332 5.04898,-2.61827 6.87349,-3.83646 1.8245,-1.21818 3.11453,-2.30941 4.17287,-3.23546 1.05834,-0.92604 1.88516,-1.68655 2.76159,-2.64015 0.87642,-0.95359 1.80248,-2.10017 2.41432,-3.00963 0.61184,-0.90947 0.9095,-1.58182 1.2237,-2.34249 0.31419,-0.76068 0.64474,-1.60975 0.87074,-2.33733 0.22601,-0.72758 0.3476,-1.33413 0.42478,-1.94045 0.0772,-0.60632 0.11007,-1.21243 0.14315,-1.81901 z"
       sodipodi:nodetypes="csssscssssssssssssssc" />
    <path
       id="path847"
       style="fill:none;stroke:#000000;stroke-width:0.5;stroke-linecap:round;stroke-linejoin:round;stroke-miterlimit:4;stroke-dasharray:none"
       d="M 175.94791,126.73542 A 72.495834,31.617708 0 0 1 103.45208,158.35313 72.495834,31.617708 0 0 1 30.956245,126.73542 72.495834,31.617708 0 0 1 103.45208,95.117709 72.495834,31.617708 0 0 1 175.94791,126.73542 Z" />
    <path
       style="fill:none;stroke:#000000;stroke-width:0.5;stroke-linejoin:round;stroke-miterlimit:4;stroke-dasharray:none;stroke-linecap:round"
       d="m 148.42312,122.36979 c 0,6.50258 -20.13422,11.77396 -44.97104,11.77396 -24.836829,0 -44.971054,-5.27138 -44.971049,-11.77396"
       id="ellipse849" />
    <path
       style="fill:none;stroke:#000000;stroke-width:0.5;stroke-linecap:round;stroke-linejoin:round;stroke-miterlimit:4;stroke-dasharray:none"
       d="m 65.216223,128.40316 c -4e-6,-6.50258 17.118773,-11.77396 38.235857,-11.77396 21.11708,0 38.23585,5.27138 38.23585,11.77396"
       id="path854" />
    <path
       style="fill:#ff6600;stroke:#ff6600;stroke-width:1.88977;stroke-linecap:round;stroke-linejoin:round;opacity:0.47540984"
       d="m 389.21223,360.75929 c -56.58948,0.33709 -113.61778,7.40327 -167.37295,25.61942 -29.65301,10.40874 -59.12285,24.16405 -81.77995,46.46015 -10.85777,11.09373 -19.7983,25.16479 -21.48089,40.86476 -0.83178,9.41703 0.57022,18.98798 4.73586,27.52316 10.50934,22.59068 31.24887,38.29531 52.43652,50.23745 38.03574,20.80702 80.57553,31.88413 123.13779,38.78084 32.51986,5.10259 65.48544,7.32602 98.39055,7.0361 44.14413,-0.64789 88.35106,-5.45662 131.2154,-16.22656 33.67207,-8.66527 67.03132,-20.88722 95.69423,-40.93692 15.45995,-11.49296 30.3387,-25.71849 36.74805,-44.35645 5.33345,-15.6591 2.4888,-33.39239 -6.4858,-47.15501 -13.64215,-21.27422 -35.44775,-35.6498 -57.54719,-46.9781 -39.96627,-19.77087 -83.94376,-30.02298 -127.93099,-35.92019 -26.43796,-3.41029 -53.10612,-5.00751 -79.76063,-4.94865 z m 9.3623,78.9834 c 27.73748,0.26202 55.51624,3.30685 82.55664,9.54003 17.03749,4.35641 34.72353,9.67846 48.23926,21.43555 3.87463,3.51051 6.61324,8.2274 7.51855,13.39844 8.43023,-4.51778 18.70943,-8.91686 22.28728,-18.53379 0.37097,-1.43211 0.40399,-4.86843 2.74007,-3.81484 0.99255,7.1593 -5.18807,12.81818 -10.39258,16.77441 -14.77893,10.17924 -32.48742,14.85512 -49.74511,18.92603 -25.22439,5.41587 -50.95355,8.41197 -76.69889,9.78721 -21.29149,0.32614 -42.60678,0.97107 -63.89291,0.26137 -36.1803,-2.02889 -72.75316,-5.7727 -107.24081,-17.4853 -11.27787,-4.29517 -23.51425,-8.95014 -31.12736,-18.81255 -1.69633,-2.63506 -3.65903,-6.38798 -2.45312,-9.46094 2.49713,-0.96453 1.69482,2.92876 2.5791,4.18555 4.01281,9.22496 13.79995,14.10867 22.45605,18.03418 1.18693,-9.69511 9.83206,-16.25065 17.77693,-20.7834 21.30884,-11.50779 45.45665,-16.30463 69.20496,-19.7636 21.91884,-2.99142 44.09251,-3.71794 66.19194,-3.68835 z"
       id="path855"
       transform="scale(0.26458333)" />
  </g>
</svg>
