<?xml version="1.0" encoding="UTF-8" standalone="no"?>
<svg
   xmlns:dc="http://purl.org/dc/elements/1.1/"
   xmlns:cc="http://creativecommons.org/ns#"
   xmlns:rdf="http://www.w3.org/1999/02/22-rdf-syntax-ns#"
   xmlns:svg="http://www.w3.org/2000/svg"
   xmlns="http://www.w3.org/2000/svg"
   xmlns:sodipodi="http://sodipodi.sourceforge.net/DTD/sodipodi-0.dtd"
   xmlns:inkscape="http://www.inkscape.org/namespaces/inkscape"
   width="210mm"
   height="297mm"
   viewBox="0 0 210 297"
   version="1.1"
   id="svg8"
   inkscape:version="1.0.2 (e86c870879, 2021-01-15, custom)"
   sodipodi:docname="torus.svg">
  <defs
     id="defs2">
    <inkscape:path-effect
       effect="bspline"
       id="path-effect890"
       is_visible="true"
       lpeversion="1"
       weight="33.333333"
       steps="2"
       helper_size="0"
       apply_no_weight="true"
       apply_with_weight="true"
       only_selected="false" />
    <inkscape:path-effect
       effect="bspline"
       id="path-effect871"
       is_visible="true"
       lpeversion="1"
       weight="33.333333"
       steps="2"
       helper_size="0"
       apply_no_weight="true"
       apply_with_weight="true"
       only_selected="false" />
    <inkscape:path-effect
       effect="bspline"
       id="path-effect867"
       is_visible="true"
       lpeversion="1"
       weight="33.333333"
       steps="2"
       helper_size="0"
       apply_no_weight="true"
       apply_with_weight="true"
       only_selected="false" />
    <inkscape:path-effect
       effect="bspline"
       id="path-effect863"
       is_visible="true"
       lpeversion="1"
       weight="33.333333"
       steps="2"
       helper_size="0"
       apply_no_weight="true"
       apply_with_weight="true"
       only_selected="false" />
  </defs>
  <sodipodi:namedview
     id="base"
     pagecolor="#ffffff"
     bordercolor="#666666"
     borderopacity="1.0"
     inkscape:pageopacity="0.0"
     inkscape:pageshadow="2"
     inkscape:zoom="1"
     inkscape:cx="473.96489"
     inkscape:cy="535.26112"
     inkscape:document-units="mm"
     inkscape:current-layer="layer1"
     inkscape:document-rotation="0"
     showgrid="false"
     inkscape:window-width="1920"
     inkscape:window-height="1051"
     inkscape:window-x="-9"
     inkscape:window-y="-9"
     inkscape:window-maximized="1" />
  <metadata
     id="metadata5">
    <rdf:RDF>
      <cc:Work
         rdf:about="">
        <dc:format>image/svg+xml</dc:format>
        <dc:type
           rdf:resource="http://purl.org/dc/dcmitype/StillImage" />
        <dc:title></dc:title>
      </cc:Work>
    </rdf:RDF>
  </metadata>
  <g
     inkscape:label="Layer 1"
     inkscape:groupmode="layer"
     id="layer1">
    <path
       style="fill:#cccccc;stroke:#cccccc;stroke-width:0.264583px;stroke-linecap:butt;stroke-linejoin:miter;stroke-opacity:1"
       d="m 105.92168,116.2403 c -1.23458,-0.17637 -3.70398,-0.52914 -7.011309,-0.70556 -3.307331,-0.17641 -7.452386,-0.17641 -11.840132,0.28659 -4.387745,0.463 -8.642006,0.98476 -12.190898,2.01507 -4.784614,1.38907 -6.31528,2.23828 -8.134739,3.46503 -2.013142,1.35735 -3.066009,2.07223 -4.612304,3.81458 -0.845926,0.95318 -0.788578,1.39376 -0.573425,1.58123 0.215152,0.18746 0.673628,0.41876 1.189831,0.71556 0.516204,0.29679 1.115421,0.54647 1.53926,0.70313 0.42384,0.15667 0.676203,0.222 0.835882,0.0622 0.159679,-0.15979 0.227013,-0.54482 0.376431,-0.96891 0.149417,-0.42409 0.380922,-0.8871 0.634503,-1.273 0.253581,-0.3859 0.529181,-0.69457 0.826864,-0.97847 0.297682,-0.2839 0.617379,-0.54296 1.063882,-0.8737 0.446502,-0.33074 1.019755,-0.73312 1.435922,-1.02802 0.416167,-0.2949 0.675233,-0.48231 1.052853,-0.69454 0.377619,-0.21223 0.873703,-0.44925 1.51314,-0.70832 0.639436,-0.25908 1.422146,-0.54019 2.180079,-0.80478 0.757932,-0.26458 1.491034,-0.51263 2.033991,-0.68901 0.542958,-0.17639 0.89573,-0.28112 1.485539,-0.452 0.589809,-0.17088 1.416615,-0.4079 2.24346,-0.6146 0.826844,-0.20671 1.653648,-0.38309 2.604511,-0.56775 0.950863,-0.18465 2.025712,-0.37757 2.791907,-0.51262 0.766195,-0.13505 1.223697,-0.21222 1.7887,-0.30592 0.565003,-0.0937 1.237472,-0.20395 1.912732,-0.28663 0.67526,-0.0827 1.353238,-0.1378 1.987139,-0.19016 0.633901,-0.0524 1.223697,-0.10197 1.838311,-0.14331 0.614615,-0.0413 1.254013,-0.0744 1.901695,-0.11574 0.647683,-0.0413 1.303615,-0.0909 2.224162,-0.12953 0.920548,-0.0386 2.105637,-0.0662 2.918676,-0.0965 0.813037,-0.0303 1.254007,-0.0634 1.681207,-0.0827 0.42721,-0.0193 0.84061,-0.0248 1.37529,-0.033 0.53469,-0.008 1.19062,-0.0193 1.82728,-0.0303 0.63666,-0.011 1.25401,-0.0221 1.63982,-0.0524 0.38582,-0.0303 1.97838,0.11878 2.05547,0.094 0.0771,-0.0248 -1.36114,-0.22358 -2.59573,-0.39995 z"
       id="path865"
       sodipodi:nodetypes="ssssssssssssssssssssssssscccssscsscss" />
    <path
       id="path861"
       style="fill:#cccccc;stroke:#cccccc;stroke-width:0.999999px;stroke-linecap:butt;stroke-linejoin:miter;stroke-opacity:1"
       d="m 665,479 c -4.83352,9.33371 -9.66684,18.66684 -19.5,28.25 -9.83316,9.58316 -22.91659,20.91724 -40.5,31.08398 -17.58341,10.16675 -39.66599,18.41655 -62.16602,26.5 -22.50002,8.08346 -45.94608,12.67069 -81.66601,19.08204 C 428.66782,589.74945 375.58425,595.74994 329,595.5 c 18.83438,1.16673 37.66722,2.33339 54.58398,2.625 16.91677,0.29161 31.91725,-0.29164 45.14649,-1.125 13.22924,-0.83336 24.68808,-1.91728 36.83398,-3.52148 12.14591,-1.60421 24.97845,-3.72848 36.04102,-5.79102 11.06257,-2.06254 20.35283,-4.06311 29.89453,-6.52148 9.5417,-2.45838 19.33327,-5.3743 29.9375,-9.10352 10.60423,-3.72922 22.02084,-8.27144 32.1875,-13.08398 10.16666,-4.81255 19.08275,-9.89584 25.97852,-14.5 6.89577,-4.60417 11.77146,-8.7285 15.77148,-12.22852 4.00002,-3.50002 7.12503,-6.37439 10.4375,-9.97852 3.31247,-3.60412 6.81254,-7.93765 9.125,-11.375 2.31246,-3.43734 3.43749,-5.97851 4.625,-8.85351 1.18751,-2.87501 2.43682,-6.08408 3.29102,-8.83399 0.85419,-2.7499 1.31375,-5.04237 1.60546,-7.33398 0.29172,-2.29161 0.41599,-4.5824 0.54102,-6.875 z"
       transform="scale(0.26458333)"
       sodipodi:nodetypes="csssscssssssssssssssc" />
    <path
       id="path847"
       style="fill:none;stroke:#000000;stroke-width:0.5;stroke-linecap:round;stroke-linejoin:round;stroke-miterlimit:4;stroke-dasharray:none"
       d="M 175.94791,126.73542 A 72.495834,31.617708 0 0 1 103.45208,158.35313 72.495834,31.617708 0 0 1 30.956245,126.73542 72.495834,31.617708 0 0 1 103.45208,95.117709 72.495834,31.617708 0 0 1 175.94791,126.73542 Z" />
    <path
       style="fill:none;stroke:#000000;stroke-width:0.5;stroke-linejoin:round;stroke-miterlimit:4;stroke-dasharray:none;stroke-linecap:round"
       d="m 148.42312,122.36979 c 0,6.50258 -20.13422,11.77396 -44.97104,11.77396 -24.836829,0 -44.971054,-5.27138 -44.971049,-11.77396"
       id="ellipse849" />
    <path
       style="fill:none;stroke:#000000;stroke-width:0.5;stroke-linecap:round;stroke-linejoin:round;stroke-miterlimit:4;stroke-dasharray:none"
       d="m 65.216223,128.40316 c -4e-6,-6.50258 17.118773,-11.77396 38.235857,-11.77396 21.11708,0 38.23585,5.27138 38.23585,11.77396"
       id="path854" />
  </g>
</svg>
